<svg width="40" height="40" viewBox="0 0 40 40" fill="none" xmlns="http://www.w3.org/2000/svg">
<circle cx="20" cy="20" r="19" fill="#0A0A0A" stroke="white" stroke-width="2"/>
<path d="M15.7367 20.9758L16.4247 14.9598C16.4354 14.8531 16.4887 14.7998 16.5847 14.7998H22.6647C22.7714 14.7998 22.8247 14.8531 22.8247 14.9598V16.2078C22.8247 16.3145 22.7714 16.3678 22.6647 16.3678H17.8807L17.4807 19.2478C18.2487 18.7998 19.0381 18.5758 19.8487 18.5758C20.9474 18.5758 21.8167 18.9065 22.4567 19.5678C23.0967 20.2291 23.4167 21.1518 23.4167 22.3358C23.4167 23.5518 23.0487 24.4958 22.3127 25.1678C21.5874 25.8291 20.6541 26.1598 19.5127 26.1598C18.4247 26.1598 17.5234 25.8505 16.8087 25.2318C16.1047 24.6025 15.7207 23.7865 15.6567 22.7838C15.6567 22.6238 15.7207 22.5438 15.8487 22.5438H17.0807C17.1981 22.5438 17.2674 22.6238 17.2887 22.7838C17.3954 23.3491 17.6514 23.7918 18.0567 24.1118C18.4621 24.4318 18.9474 24.5918 19.5127 24.5918C20.2274 24.5918 20.7821 24.4051 21.1767 24.0318C21.5821 23.6478 21.7847 23.0931 21.7847 22.3678C21.7847 21.6638 21.5874 21.1198 21.1927 20.7358C20.7981 20.3411 20.2434 20.1438 19.5287 20.1438C18.6861 20.1438 17.9447 20.4265 17.3047 20.9918C17.2087 21.0878 17.1181 21.1358 17.0327 21.1358H15.8967C15.7901 21.1358 15.7367 21.0825 15.7367 20.9758Z" fill="white"/>
</svg>
