<svg width="74" height="68" viewBox="0 0 74 68" fill="none" xmlns="http://www.w3.org/2000/svg">
<g clip-path="url(#clip0_46_65)">
<path d="M19.2812 16.0004C19.3989 15.9959 19.5162 16.019 19.623 16.0678C19.7301 16.1168 19.8241 16.191 19.8965 16.2827L21.2539 17.8159L21.3604 17.5336C21.4562 17.2434 21.6389 16.9883 21.8848 16.8022C22.1309 16.616 22.4293 16.5073 22.7393 16.4907H36.749C36.8665 16.4886 36.9833 16.5132 37.0898 16.562C37.1962 16.6108 37.2902 16.6832 37.3643 16.7729L41.6064 21.5815L41.5322 17.5756C41.5381 17.3992 41.5807 17.2255 41.6572 17.0659C41.7339 16.9063 41.8428 16.7635 41.9775 16.6469C42.2338 16.3851 42.5838 16.2315 42.9531 16.2192H47.1953C47.3311 16.2151 47.4657 16.247 47.585 16.311C47.7041 16.3751 47.8042 16.4698 47.874 16.5844C47.8556 16.5427 47.8305 16.5042 47.7998 16.4702L50.9814 20.0268L51.5225 18.2436C51.6163 17.954 51.7978 17.6994 52.042 17.5131C52.2863 17.3269 52.5821 17.2179 52.8906 17.2006H68.375C68.4933 17.1957 68.6113 17.2172 68.7197 17.2641C68.8282 17.3111 68.9247 17.3818 69.001 17.4711L73.8369 22.9272L73.9004 22.9995C73.9523 23.0779 73.9852 23.1682 73.9961 23.2612V23.3129C74.0014 23.3893 74.0014 23.466 73.9961 23.5424C73.9998 23.6014 73.9998 23.6611 73.9961 23.7202L69.1279 39.6694L69.0645 39.8256L68.9902 39.9614C68.9901 39.9652 68.9876 40.0143 68.9268 40.0444L68.8203 40.1694L68.6611 40.3051C68.5764 40.3676 68.4813 40.4093 68.3965 40.4614C68.312 40.5133 68.3008 40.5242 68.2588 40.5346C68.1151 40.5965 67.9596 40.6284 67.8027 40.6284H65.6816L66.5186 41.5678V41.6411C66.5723 41.7376 66.6052 41.8439 66.6143 41.9536L67.0811 49.8188V50.1733C67.0811 50.2463 67.0068 50.2778 67.0068 50.309V50.392C66.9862 50.4392 66.9614 50.4849 66.9326 50.5278L66.8262 50.6528L66.7207 50.7475C66.6101 50.8399 66.4846 50.9138 66.3496 50.9663H66.2959C66.1644 51.0178 66.0245 51.0457 65.8828 51.0493H61.6406C61.5275 51.0529 61.4148 51.0328 61.3105 50.9897C61.2063 50.9465 61.1125 50.8813 61.0361 50.7993L56.4014 46.0844L53.3574 50.6323L53.2939 50.7153L53.1875 50.8413H53.0078C52.9228 50.9126 52.8252 50.9691 52.7207 51.0082L52.6152 51.06C52.4822 51.1077 52.3425 51.1353 52.2012 51.143H47.959C47.8459 51.1466 47.7332 51.1267 47.6289 51.0834C47.5245 51.0403 47.431 50.9752 47.3545 50.893L45.7744 49.1098L40.2168 51.06C40.087 51.1174 39.946 51.1455 39.8037 51.143C39.6113 51.1482 39.4229 51.0856 39.2734 50.9663L39.1885 50.8823L36.5371 47.8989C36.431 48.2535 36.3461 48.609 36.2295 48.9428L36.166 49.0883C36.1477 49.1366 36.1217 49.1824 36.0908 49.2241L36.0273 49.3071L35.9111 49.433L35.7627 49.5688C35.6807 49.6306 35.5912 49.6829 35.4971 49.725L35.1895 50.1C35.0436 50.1538 34.8891 50.1825 34.7334 50.184H31.2549C31.1425 50.1896 31.0301 50.1707 30.9258 50.1293C30.8214 50.0878 30.7273 50.0246 30.6504 49.9438L29.5049 48.6508L29.0068 50.2778C28.995 50.3331 28.9735 50.3859 28.9434 50.434L28.8789 50.5698L28.8154 50.6528L28.71 50.7788C28.6659 50.8291 28.6158 50.874 28.5615 50.9135C28.4733 50.9718 28.3806 51.0248 28.2852 51.0707L28.1475 51.143C28.0055 51.1989 27.855 51.2316 27.7021 51.2377H21.4023C21.2875 51.2428 21.1726 51.2224 21.0664 51.1791C20.9602 51.1359 20.8647 51.0702 20.7871 50.9868L19.8643 49.9438H16.5234L16.4492 50.1938C16.4364 50.2474 16.4189 50.3005 16.3965 50.351C16.3678 50.3938 16.3428 50.4388 16.3223 50.4858L16.2588 50.5698L16.1523 50.6948C16.1081 50.7452 16.0583 50.7909 16.0039 50.8305C15.9158 50.8886 15.8239 50.9409 15.7285 50.9868L15.5908 51.06C15.449 51.1159 15.2982 51.1475 15.1455 51.1538H11.21C11.0969 51.1573 10.9841 51.1373 10.8799 51.0942C10.7756 51.0509 10.6818 50.9858 10.6055 50.9038L9.38574 49.5366H5.66406C5.58021 49.5318 5.49719 49.5139 5.41895 49.4829C5.31463 49.4414 5.22047 49.378 5.14355 49.2973L0.191406 44.019C0.23102 44.0583 0.277739 44.0901 0.329102 44.1127C0.237478 44.0592 0.160837 43.9841 0.106445 43.894C0.0366441 43.76 0 43.6109 0 43.4604C6.44679e-05 43.31 0.0367059 43.1616 0.106445 43.0278C2.90758 37.3686 5.20301 31.4803 6.96777 25.4301V25.3579L6.61816 24.9614C6.61902 24.9614 6.62739 24.9623 6.63965 24.9672C6.55641 24.8725 6.49524 24.7606 6.46484 24.6381C6.42712 24.486 6.43675 24.3263 6.49121 24.1791L7.64648 20.3608C7.74298 20.0727 7.92519 19.8191 8.16895 19.6332C8.41257 19.4476 8.70716 19.338 9.01465 19.3178H13.2568L13.9463 17.0434C14.0441 16.7561 14.2263 16.5034 14.4697 16.3178C14.7131 16.1322 15.0073 16.0219 15.3145 16.0004H19.2812ZM13.9785 20.392H8.72852L7.56152 24.2104H12.8652L6.60742 44.8842H10.542L14.2324 32.7631L15.6221 34.1088L17.0332 29.478L15.6436 28.101L16.8311 24.2104H19.2812L20.4482 20.392H18.0195L19.0801 17.0854H15.0391L13.9785 20.392ZM37.9795 25.9829L36.7383 30.0727H39.6973L35.1895 44.8842L42.7939 42.2143L44.1836 37.6352L41.1504 38.6782L45.0215 25.9731L37.9795 25.9829ZM17.4463 28.9038H24.1387L20.4375 41.0561H18.0195L16.8525 44.8637H23.1523L28.0098 28.9038H34.5107L35.6885 25.0649H18.6133L17.4463 28.9038ZM43.3242 44.8637H47.6201L52.8691 37.0092H48.627L43.3242 44.8637ZM56.8682 44.8325H61.1104L60.6328 36.978H56.4014L56.8682 44.8325ZM28.582 30.6772C28.6836 35.0947 28.0677 39.5003 26.7578 43.727H30.2471C31.5644 39.4946 32.2784 35.1026 32.3682 30.6772H28.582ZM18.0088 30.5522C16.5512 35.1552 14.4295 39.5291 11.709 43.5395L11.7305 43.5913H15.6748C18.1493 39.4921 20.1115 35.114 21.5186 30.5522H18.0088ZM8.0918 25.4301C6.30138 31.5476 3.9776 37.5019 1.14551 43.226H4.66699C7.39908 37.4849 9.64768 31.5328 11.3906 25.4301H8.0918ZM47.7578 34.2446H63.2422L68.1201 18.2221H52.6465L47.7578 34.2446ZM60.4521 30.2495H53.0391L55.4785 22.2075H62.9023L60.4521 30.2495ZM42.7832 23.8969H47.0889L46.9619 17.2319H42.667L42.7832 23.8969ZM21.3066 21.2895H35.2959L36.4521 17.5131H22.4629L21.3066 21.2895Z" fill="black"/>
</g>
<defs>
<clipPath id="clip0_46_65">
<rect width="74" height="35.2381" fill="white" transform="translate(0 16)"/>
</clipPath>
</defs>
</svg>
