<svg width="168" height="68" viewBox="0 0 168 68" fill="none" xmlns="http://www.w3.org/2000/svg">
<g clip-path="url(#clip0_46_10)">
<path d="M80.4222 14C79.4851 18.1266 79.1153 19.7556 73.5248 20.265C79.1153 19.7556 78.7454 21.3846 77.8084 25.5112C78.7398 21.4091 79.1153 19.7556 84.6179 19.2541C79.1153 19.7556 79.4907 18.102 80.4222 14Z" fill="black"/>
<path d="M82.8384 24.9479C81.2663 25.9403 79.3577 26.1762 77.5113 26.3937C75.4888 26.6319 73.4867 26.8788 71.5076 27.1337C72.0318 24.827 72.2759 23.8923 75.409 23.6068C72.243 23.8953 72.459 22.9439 72.9949 20.5837C72.4558 22.958 72.243 23.8953 69.0265 24.1884C72.2098 23.8983 72.0342 24.8133 71.5076 27.1337C65.5994 27.8948 59.8955 28.7277 54.4618 29.6149C60.7574 28.8473 69.5076 28.0994 77.0174 27.4576C79.4552 27.2492 82.7254 26.9916 83.4201 29.3376C83.6399 30.0798 83.6437 30.9944 83.5109 32.0869H80.188L77.445 44.9913H84.745L87.488 32.0869H83.7838C84.3507 30.3624 85.0588 29.017 86.2194 27.9796C87.6969 26.6591 89.7856 26.3827 91.762 26.2401C131.931 23.3419 163.557 25.4597 164.077 31.3682C164.226 33.0505 161.837 34.8712 157.42 36.7111V36.7178L157.405 36.7238V36.7111C159.042 36.0188 162.336 34.303 162.538 32.0869H155.545L152.781 38.4703C152.779 38.4817 152.77 38.4932 152.756 38.5047H152.738L152.746 38.4703C152.733 37.7591 152.714 37.0479 152.689 36.3368C152.676 35.6256 152.662 34.9201 152.646 34.2204C152.633 33.5092 152.615 32.7981 152.59 32.0869H143.214L140.471 44.9913H146.892L148.402 37.8853L148.406 37.8681H148.423C148.426 37.8681 148.429 37.8684 148.431 37.8691C148.435 37.8706 148.438 37.8737 148.438 37.8785C148.438 37.8798 148.438 37.8813 148.438 37.8829L148.437 37.8853C148.479 39.0667 148.516 40.2482 148.546 41.4297C148.576 42.6112 148.611 43.7984 148.651 44.9913H153.136L156.382 37.8337L156.385 37.8165H156.403C156.41 37.8165 156.414 37.8185 156.416 37.8225C156.417 37.8232 156.417 37.8241 156.417 37.825V37.8264C156.417 37.8285 156.417 37.8309 156.417 37.8337L154.895 44.9913H161.668L164.089 33.6002C166.552 32.1021 167.812 30.6537 167.665 29.3085C166.963 22.8555 134.133 21.047 92.4639 24.8331C92.3854 24.8403 92.306 24.8476 92.2261 24.855L92.2153 24.856C90.2525 25.0376 87.8954 25.2556 86.8964 23.5996C85.937 22.0094 86.5492 19.3133 87.4289 15.4392C86.3499 20.1908 85.6766 23.1563 82.8384 24.9479Z" fill="black"/>
<path fill-rule="evenodd" clip-rule="evenodd" d="M55.2638 32.3278C54.0108 31.8231 52.3405 31.5707 50.2532 31.5707C49.2564 31.5707 48.3283 31.6338 47.4688 31.76C46.6211 31.8861 45.8374 32.0697 45.1178 32.3106C44.3982 32.5515 43.745 32.8382 43.1583 33.1709C42.5858 33.492 42.068 33.8591 41.605 34.272C41.1444 34.6735 40.741 35.1094 40.3948 35.5797C40.0627 36.0385 39.7844 36.5203 39.5598 37.025C39.3495 37.5182 39.1882 38.0287 39.076 38.5563C38.9395 39.1987 38.884 39.8181 38.9097 40.4146C38.9379 40.9996 39.0436 41.5502 39.2271 42.0663C39.4247 42.571 39.7024 43.0299 40.0603 43.4428C40.4299 43.8558 40.882 44.2113 41.4166 44.5096C41.9538 44.7963 42.5747 45.02 43.2793 45.1806C43.9957 45.3412 44.7995 45.4215 45.6908 45.4215C46.1012 45.4215 46.4567 45.4043 46.7572 45.3699C47.0669 45.3469 47.3862 45.3068 47.715 45.2494C48.0465 44.5727 48.3792 43.8902 48.7131 43.2019C49.0612 42.5022 49.4023 41.8082 49.7361 41.12C49.8313 40.9238 49.9264 40.7281 50.0214 40.5328C50.1097 40.3513 50.198 40.1701 50.2861 39.9893C50.4358 39.6826 50.5851 39.377 50.7342 39.0725L49.4762 44.9913H56.9345L58.1926 39.0725H50.7342L58.7063 37.3175C58.7503 36.2278 58.5002 35.2528 57.956 34.3925C57.4142 33.5207 56.5168 32.8325 55.2638 32.3278ZM50.7342 39.0725C50.5424 39.3134 50.2675 39.5026 49.9099 39.6403C49.5548 39.7665 49.0782 39.8296 48.4801 39.8296C48.0931 39.8296 47.7674 39.7894 47.5031 39.7091C47.2387 39.6288 47.0332 39.5199 46.8865 39.3822C46.7399 39.2446 46.6426 39.0954 46.5946 38.9349C46.5491 38.7628 46.5458 38.585 46.5848 38.4015C46.6385 38.1491 46.753 37.914 46.9283 37.696C47.1178 37.4666 47.3867 37.2773 47.735 37.1282C48.0951 36.9791 48.5506 36.9046 49.1018 36.9046C49.6881 36.9046 50.1377 36.9963 50.4505 37.1798C50.7633 37.3634 50.9442 37.6157 50.9932 37.9369C51.0422 38.2581 50.9559 38.6366 50.7342 39.0725Z" fill="black"/>
<path d="M71.3052 31.6053C70.9139 31.5822 70.5061 31.5707 70.0818 31.5707C69.003 31.5707 67.995 31.651 67.0579 31.8116C66.135 31.9607 65.2841 32.1844 64.5054 32.4826C63.7291 32.7694 63.0273 33.1192 62.4001 33.5322C61.7871 33.9337 61.244 34.3925 60.7707 34.9087C60.3092 35.4248 59.92 35.9869 59.6031 36.5948C59.298 37.2028 59.0735 37.8451 58.9297 38.5219C58.9161 38.5855 58.9034 38.649 58.8916 38.7124C67.2405 38.5412 69.2448 36.5074 71.3052 31.6053Z" fill="black"/>
<path d="M58.8916 38.7123C58.807 39.1635 58.764 39.6107 58.7625 40.0531C58.7725 40.5579 58.846 41.0396 58.983 41.4984C59.1317 41.9573 59.344 42.3931 59.6197 42.8061C59.9097 43.2076 60.2714 43.5746 60.7049 43.9073C61.1502 44.2399 61.6815 44.5267 62.2987 44.7676C62.9184 44.997 63.6252 45.1748 64.4193 45.3009C64.9065 45.3844 65.4293 45.4426 65.9876 45.4754C67.6853 40.5768 67.2259 38.5854 58.8916 38.7123Z" fill="black"/>
<path d="M66.0485 45.479C66.3922 45.498 66.7492 45.5075 67.1195 45.5075C68.515 45.5075 69.7673 45.3813 70.8764 45.129C71.9947 44.8881 72.9813 44.5497 73.8362 44.1138C74.6936 43.6665 75.4248 43.1503 76.0299 42.5653C76.6375 41.9688 77.1247 41.3322 77.4913 40.6555C77.8604 39.9672 78.123 39.256 78.279 38.5219C78.2901 38.4696 78.3007 38.4176 78.3106 38.3658C70.0963 38.5352 68.0989 40.5973 66.0485 45.479Z" fill="black"/>
<path d="M78.3106 38.3658C70.1216 38.4895 69.6818 36.4744 71.3667 31.609C72.9377 31.7069 74.2403 31.9924 75.2743 32.4654C76.5782 33.0619 77.4769 33.882 77.9704 34.9259C78.4447 35.9293 78.5581 37.0762 78.3106 38.3658Z" fill="black"/>
<path fill-rule="evenodd" clip-rule="evenodd" d="M116.071 37.2393L123.195 36.9218C123.544 36.1073 123.618 35.3732 123.417 34.7194C123.216 34.0656 122.773 33.5035 122.087 33.0332C121.413 32.5629 120.528 32.2016 119.432 31.9492C118.349 31.6969 117.085 31.5707 115.643 31.5707C114.623 31.5707 113.63 31.6338 112.665 31.76C111.712 31.8861 110.817 32.0697 109.98 32.3106C109.155 32.5515 108.41 32.8554 107.746 33.2225C107.095 33.5781 106.561 33.9968 106.142 34.4785C105.725 34.9488 105.455 35.4765 105.33 36.0615C105.213 36.612 105.248 37.111 105.434 37.5584C105.623 37.9942 106.018 38.3728 106.618 38.694C107.218 39.0151 108.073 39.2675 109.183 39.451C109.918 39.5647 110.789 39.6408 111.796 39.6794L104.513 40.1565C104.231 41.0971 104.217 41.9057 104.472 42.5825C104.739 43.2593 105.236 43.8156 105.964 44.2515C106.695 44.6759 107.625 44.9913 108.753 45.1978C109.882 45.4043 111.162 45.5075 112.593 45.5075C113.883 45.5075 115.105 45.41 116.261 45.215C117.426 45.0315 118.469 44.7562 119.392 44.3891C120.328 44.0106 121.089 43.546 121.676 42.9955C122.276 42.4334 122.653 41.791 122.806 41.0684C122.948 40.4031 122.917 39.8296 122.715 39.3478C122.515 38.8545 122.096 38.4531 121.458 38.1434C120.823 37.8222 119.929 37.587 118.776 37.4379C118.009 37.3387 117.107 37.2725 116.071 37.2393ZM115.87 37.2333C115.409 37.2206 114.921 37.2143 114.408 37.2143H113.969C113.652 37.2143 113.398 37.197 113.205 37.1626C113.025 37.1282 112.897 37.0709 112.82 36.9906C112.746 36.8988 112.723 36.7841 112.752 36.6465C112.777 36.5318 112.835 36.4228 112.927 36.3195C113.031 36.2163 113.155 36.1303 113.299 36.0615C113.457 35.9812 113.633 35.9238 113.828 35.8894C114.025 35.8435 114.241 35.8206 114.476 35.8206C114.851 35.8206 115.174 35.8722 115.446 35.9754C115.731 36.0672 115.921 36.2221 116.015 36.44C116.111 36.6433 116.062 36.9077 115.87 37.2333ZM112.114 39.6902C111.961 40.0198 111.928 40.2957 112.017 40.5178C112.121 40.7472 112.319 40.9193 112.611 41.034C112.904 41.1487 113.243 41.206 113.63 41.206C113.865 41.206 114.079 41.1888 114.274 41.1544C114.481 41.12 114.668 41.0684 114.835 40.9996C115.002 40.9307 115.138 40.8447 115.242 40.7415C115.348 40.6268 115.416 40.5006 115.445 40.3629C115.504 40.0876 115.395 39.9098 115.119 39.8296C114.855 39.7493 114.447 39.7091 113.896 39.7091H113.456C112.986 39.7091 112.539 39.7028 112.114 39.6902Z" fill="black"/>
<path d="M132.58 32.0869H125.28L123.55 40.2253C123.402 40.925 123.425 41.5616 123.619 42.1352C123.817 42.6972 124.146 43.1904 124.607 43.6149C125.082 44.0278 125.652 44.3777 126.319 44.6644C126.996 44.9512 127.737 45.1634 128.54 45.301C129.355 45.4387 130.191 45.5075 131.047 45.5075C132.126 45.5075 133.199 45.3985 134.265 45.1806C135.343 44.9627 136.339 44.6357 137.253 44.1999C138.169 43.7525 138.937 43.2019 139.557 42.5481C140.19 41.8828 140.601 41.1085 140.789 40.2253L142.519 32.0869H135.219L133.774 38.8832C133.704 39.2159 133.515 39.4682 133.209 39.6403C132.903 39.8123 132.579 39.8984 132.239 39.8984C132.075 39.8984 131.916 39.8754 131.761 39.8296C131.619 39.7837 131.491 39.7206 131.379 39.6403C131.282 39.5485 131.205 39.4395 131.15 39.3134C131.106 39.1872 131.103 39.0381 131.139 38.866L132.58 32.0869Z" fill="black"/>
<path fill-rule="evenodd" clip-rule="evenodd" d="M99.3278 32.0869C100.418 32.0869 101.337 32.236 102.082 32.5342C102.842 32.821 103.432 33.2167 103.853 33.7215C104.287 34.2147 104.573 34.7767 104.708 35.4076C104.844 36.0385 104.84 36.6923 104.696 37.3691C104.542 38.0917 104.255 38.78 103.835 39.4338C103.429 40.0762 102.896 40.6497 102.238 41.1544C101.591 41.6591 100.831 42.0606 99.9589 42.3588C99.0888 42.6456 98.1201 42.789 97.053 42.789H93.2711L93.2499 42.8062H93.2323L93.2286 42.8234L92.7678 44.9913H85.4502L88.1931 32.0869H99.3278ZM95.683 39.0553C96.0349 39.0553 96.3402 38.9979 96.5991 38.8832C96.8722 38.757 97.0869 38.6022 97.2432 38.4187C97.4019 38.2237 97.502 38.0287 97.5434 37.8337C97.5873 37.6272 97.5689 37.4379 97.4882 37.2659C97.41 37.0823 97.2657 36.9332 97.0556 36.8185C96.8454 36.7038 96.5586 36.6465 96.1951 36.6465H94.5768C94.565 36.6465 94.552 36.6522 94.5379 36.6637L94.5342 36.6809L94.0332 39.0381C94.0449 39.0381 94.0496 39.0438 94.0471 39.0553H95.683Z" fill="black"/>
<path fill-rule="evenodd" clip-rule="evenodd" d="M11.7828 39.9328L11.7901 39.8984L13.4505 32.0869H6.15051L3.7999 43.1455C1.19765 44.6888 -0.13916 46.1813 0.0114694 47.5645C0.769477 54.5256 38.9146 56.082 85.2109 51.0408C93.9828 50.0856 102.418 48.9621 110.324 47.721C106.134 48.0959 101.67 48.4751 97.0945 48.8638L97.0891 48.8642L97.0806 48.865L97.0749 48.8654L97.069 48.8659L97.0567 48.867C93.0374 49.2084 88.9321 49.5571 84.8498 49.9167C40.5351 53.8204 4.15823 51.8451 3.59966 45.5048C3.45233 43.832 5.8128 42.0226 10.1819 40.1933C7.06872 41.5631 5.74017 43.355 5.36723 44.9913H17.603L18.6782 39.9328H11.7828ZM9.96399 40.2607C9.89339 40.2887 9.82321 40.3166 9.75351 40.3446C10.0086 40.2445 10.2684 40.1442 10.5325 40.044C10.5739 40.0269 10.6156 40.0099 10.6575 39.993C10.5386 40.0378 10.4209 40.0827 10.3044 40.1277C10.2432 40.1513 10.1823 40.1749 10.1217 40.1986C10.0689 40.2193 10.0163 40.24 9.96399 40.2607Z" fill="black"/>
<path d="M31.7558 31.6053C31.3645 31.5822 30.9568 31.5707 30.5325 31.5707C29.4536 31.5707 28.4456 31.651 27.5085 31.8116C26.5856 31.9607 25.7348 32.1844 24.956 32.4826C24.1797 32.7694 23.478 33.1192 22.8508 33.5322C22.2377 33.9337 21.6946 34.3925 21.2213 34.9087C20.7598 35.4248 20.3706 35.9869 20.0537 36.5948C19.7486 37.2028 19.5241 37.8451 19.3803 38.5219C19.3733 38.5547 19.3666 38.5874 19.36 38.6201C19.3539 38.6509 19.3479 38.6817 19.3422 38.7124C27.6912 38.5412 29.6954 36.5074 31.7558 31.6053Z" fill="black"/>
<path d="M19.3422 38.7123C19.2577 39.1635 19.2146 39.6107 19.2131 40.0531C19.2231 40.5579 19.2966 41.0396 19.4336 41.4984C19.5823 41.9573 19.7946 42.3931 20.0703 42.8061C20.3603 43.2076 20.722 43.5746 21.1555 43.9073C21.6008 44.2399 22.1321 44.5267 22.7493 44.7676C23.369 44.997 24.0759 45.1748 24.8699 45.3009C25.3571 45.3844 25.8799 45.4426 26.4382 45.4754C28.1359 40.5768 27.6765 38.5854 19.3422 38.7123Z" fill="black"/>
<path d="M26.4991 45.479C26.8428 45.498 27.1998 45.5075 27.5701 45.5075C28.9656 45.5075 30.2179 45.3813 31.327 45.129C32.4453 44.8881 33.4319 44.5497 34.2869 44.1138C35.1442 43.6665 35.8754 43.1503 36.4806 42.5653C37.0881 41.9688 37.5753 41.3322 37.9419 40.6555C38.311 39.9672 38.5736 39.256 38.7296 38.5219C38.7408 38.4696 38.7513 38.4176 38.7612 38.3658C30.5469 38.5352 28.5495 40.5973 26.4991 45.479Z" fill="black"/>
<path d="M38.7612 38.3658C30.5722 38.4895 30.1325 36.4744 31.8174 31.609C33.3884 31.7069 34.6909 31.9924 35.725 32.4654C37.0289 33.0619 37.9275 33.882 38.421 34.9259C38.8954 35.9293 39.0087 37.0762 38.7612 38.3658Z" fill="black"/>
<path d="M164.628 44.9913C165.279 44.9913 165.807 44.4634 165.807 43.8121C165.807 43.1609 165.279 42.6329 164.628 42.6329C163.976 42.6329 163.449 43.1609 163.449 43.8121C163.449 44.4634 163.976 44.9913 164.628 44.9913Z" fill="black"/>
</g>
<defs>
<clipPath id="clip0_46_10">
<rect width="168" height="40" fill="white" transform="translate(0 14)"/>
</clipPath>
</defs>
</svg>
