<svg width="175" height="68" viewBox="0 0 175 68" fill="none" xmlns="http://www.w3.org/2000/svg">
<g clip-path="url(#clip0_46_52)">
<path d="M98.2207 41.7003H101.964V27.581H98.2207V41.7003ZM98.2207 25.3792H101.964V22.0214H98.2207V25.3792Z" fill="black"/>
<path d="M104.376 46.3241H108.119V40.1039H108.174C108.972 41.315 110.266 42.1131 112.247 42.1131C115.88 42.1131 118.358 39.2232 118.358 34.6545C118.358 30.2507 115.963 27.1957 112.22 27.1957C110.293 27.1957 108.972 28.104 108.064 29.3425H107.981V27.581H104.376V46.3241ZM111.449 39.003C109.22 39.003 108.037 37.3242 108.037 34.7645C108.037 32.2324 108.972 30.2233 111.312 30.2233C113.624 30.2233 114.559 32.0948 114.559 34.7645C114.559 37.4342 113.349 39.003 111.449 39.003Z" fill="black"/>
<path d="M125.824 42.1131C129.348 42.1131 131.769 40.4067 131.769 37.5718C131.769 34.2691 129.155 33.6085 126.788 33.1132C124.778 32.7003 122.907 32.5902 122.907 31.3792C122.907 30.3609 123.87 29.8104 125.329 29.8104C126.926 29.8104 127.889 30.3609 128.054 31.8746H131.439C131.164 29.0398 129.1 27.1957 125.384 27.1957C122.164 27.1957 119.632 28.6544 119.632 31.7095C119.632 34.792 122.109 35.4801 124.641 35.9755C126.568 36.3609 128.356 36.4985 128.356 37.8471C128.356 38.8379 127.421 39.471 125.77 39.471C124.09 39.471 122.934 38.7553 122.687 37.1315H119.219C119.439 40.1315 121.724 42.1131 125.824 42.1131Z" fill="black"/>
<path d="M145.98 41.7003V27.5811H142.237V35.7279C142.237 37.5994 141.164 38.9205 139.403 38.9205C137.806 38.9205 137.063 38.0123 137.063 36.3609V27.5811H133.347V36.9939C133.347 40.0765 135.109 42.0857 138.247 42.0857C140.229 42.0857 141.329 41.3426 142.292 40.049H142.375V41.7003H145.98Z" fill="black"/>
<path d="M148.402 41.7003H152.145V33.4985C152.145 31.6269 153.164 30.4159 154.678 30.4159C156.054 30.4159 156.852 31.2416 156.852 32.8379V41.7003H160.595V33.4985C160.595 31.6269 161.558 30.4159 163.127 30.4159C164.503 30.4159 165.301 31.2416 165.301 32.8379V41.7003H169.045V32.2049C169.045 29.1223 167.365 27.1957 164.393 27.1957C162.604 27.1957 161.117 28.1314 160.154 29.6727H160.099C159.411 28.1865 157.98 27.1957 156.191 27.1957C154.237 27.1957 152.861 28.1865 152.09 29.4801H152.008V27.581H148.402V41.7003Z" fill="black"/>
<path d="M0.661621 41.7003H4.40474V22.0214H0.661621V41.7003Z" fill="black"/>
<path d="M13.5571 42.1131C17.9332 42.1131 20.9332 38.8654 20.9332 34.6545C20.9332 30.4434 17.9332 27.1957 13.5571 27.1957C9.18089 27.1957 6.18091 30.4434 6.18091 34.6545C6.18091 38.8654 9.18089 42.1131 13.5571 42.1131ZM13.5571 39.2508C11.2452 39.2508 9.97907 37.4067 9.97907 34.6545C9.97907 31.9021 11.2452 30.0306 13.5571 30.0306C15.8415 30.0306 17.135 31.9021 17.135 34.6545C17.135 37.4067 15.8415 39.2508 13.5571 39.2508Z" fill="black"/>
<path d="M28.8934 46.5168C30.9851 46.5168 32.8016 46.0214 33.985 44.9204C35.031 43.9571 35.664 42.6085 35.664 40.6269V27.581H32.0585V29.0673H32.0035C31.1502 27.8838 29.8567 27.1957 28.0952 27.1957C24.5172 27.1957 21.9851 29.8929 21.9851 34.1039C21.9851 38.37 25.0677 40.847 28.2053 40.847C29.9942 40.847 31.0677 40.1315 31.8933 39.1957H31.9759V40.737C31.9759 42.6636 30.9576 43.682 28.8383 43.682C27.1043 43.682 26.3062 42.9938 26.0034 42.1131H22.2878C22.6731 44.8655 25.0401 46.5168 28.8934 46.5168ZM28.8383 37.8471C26.9117 37.8471 25.6457 36.4434 25.6457 34.0489C25.6457 31.6819 26.9117 30.1957 28.8107 30.1957C31.0677 30.1957 32.1686 31.9572 32.1686 34.0214C32.1686 36.1131 31.2053 37.8471 28.8383 37.8471Z" fill="black"/>
<path d="M44.7622 42.1131C49.1383 42.1131 52.1383 38.8654 52.1383 34.6545C52.1383 30.4434 49.1383 27.1957 44.7622 27.1957C40.386 27.1957 37.386 30.4434 37.386 34.6545C37.386 38.8654 40.386 42.1131 44.7622 42.1131ZM44.7622 39.2508C42.4502 39.2508 41.1842 37.4067 41.1842 34.6545C41.1842 31.9021 42.4502 30.0306 44.7622 30.0306C47.0466 30.0306 48.3402 31.9021 48.3402 34.6545C48.3402 37.4067 47.0466 39.2508 44.7622 39.2508Z" fill="black"/>
<path d="M170.404 25.263C170.404 24.6296 170.918 24.1162 171.551 24.1162H173.845C174.478 24.1162 174.992 24.6296 174.992 25.263C174.992 25.8964 174.478 26.4098 173.845 26.4098H171.551C170.918 26.4098 170.404 25.8964 170.404 25.263Z" fill="black"/>
<path fill-rule="evenodd" clip-rule="evenodd" d="M74.8386 18C83.7053 18 90.8939 25.1881 90.8939 34.055C90.8939 42.922 83.7053 50.1101 74.8386 50.1101C65.9717 50.1101 58.7836 42.922 58.7836 34.055C58.7836 25.1881 65.9717 18 74.8386 18ZM74.2583 19.2014C72.4267 19.4592 70.6826 20.9309 69.3288 23.3924C68.9361 24.1064 68.5817 24.8952 68.273 25.7469C70.1139 25.2843 72.1361 25.0116 74.2583 24.9694V19.2014ZM66.916 26.1325C67.3 24.9274 67.7697 23.8187 68.3118 22.8331C68.9829 21.6129 69.7794 20.5591 70.6768 19.7498C65.797 21.167 61.9506 25.0135 60.5333 29.8933C61.3427 28.9959 62.3964 28.1995 63.6166 27.5283C64.6022 26.9863 65.7109 26.5165 66.916 26.1325ZM66.5304 27.4894C66.0678 29.3303 65.7951 31.3525 65.7529 33.4747H59.9849C60.2427 31.6431 61.7144 29.899 64.176 28.5453C64.8899 28.1526 65.6787 27.7982 66.5304 27.4894ZM66.9138 33.4747C66.9617 31.1587 67.2952 28.9844 67.8468 27.0632C69.768 26.5116 71.9423 26.1781 74.2583 26.1302V28.6371C73.3943 30.849 71.6321 32.6111 69.4201 33.4747H66.9138ZM65.7529 34.6354H59.9849C60.2427 36.467 61.7144 38.211 64.176 39.5648C64.8899 39.9575 65.6787 40.3119 66.5304 40.6207C66.0678 38.7798 65.7951 36.7576 65.7529 34.6354ZM67.8468 41.0469C67.2952 39.1257 66.9617 36.9514 66.9138 34.6354H69.4201C71.6321 35.499 73.3943 37.2611 74.2583 39.473V41.9799C71.9423 41.932 69.768 41.5985 67.8468 41.0469ZM66.916 41.9776C65.7109 41.5936 64.6022 41.1238 63.6166 40.5817C62.3964 39.9106 61.3427 39.1142 60.5333 38.2168C61.9506 43.0966 65.797 46.9431 70.6768 48.3603C69.7794 47.5509 68.9829 46.4972 68.3118 45.277C67.7697 44.2914 67.3 43.1827 66.916 41.9776ZM74.2583 48.9087C72.4267 48.6509 70.6826 47.1792 69.3288 44.7177C68.9361 44.0037 68.5817 43.2149 68.273 42.3632C70.1139 42.8258 72.1361 43.0985 74.2583 43.1407V48.9087ZM79.0003 48.3603C79.8977 47.5509 80.6941 46.4972 81.3652 45.277C81.9071 44.2914 82.3775 43.1827 82.7612 41.9776C83.9662 41.5936 85.0748 41.1238 86.0605 40.5817C87.2807 39.9106 88.3347 39.1142 89.1439 38.2168C87.7262 43.0966 83.8803 46.9431 79.0003 48.3603ZM81.4046 42.3632C81.0955 43.2149 80.7407 44.0037 80.3481 44.7177C78.9945 47.1792 77.2505 48.6509 75.4188 48.9087V43.1407C77.5411 43.0985 79.5633 42.8258 81.4046 42.3632ZM83.1465 40.6207C83.9983 40.3119 84.7874 39.9575 85.501 39.5648C87.9631 38.2111 89.4345 36.467 89.6922 34.6354H83.9244C83.8819 36.7576 83.6089 38.7798 83.1465 40.6207ZM82.7636 34.6354C82.7155 36.9514 82.3823 39.1257 81.83 41.0469C79.9092 41.5985 77.7349 41.932 75.4188 41.9799V39.4748C76.2826 37.2621 78.0452 35.4993 80.2578 34.6354H82.7636ZM83.9244 33.4747H89.6922C89.4345 31.6431 87.9631 29.899 85.501 28.5453C84.7874 28.1526 83.9983 27.7982 83.1465 27.4894C83.6089 29.3303 83.8819 31.3525 83.9244 33.4747ZM81.83 27.0632C82.3823 28.9844 82.7155 31.1587 82.7636 33.4747H80.2578C78.0452 32.6108 76.2826 30.848 75.4188 28.6353V26.1302C77.7349 26.1781 79.9092 26.5116 81.83 27.0632ZM82.7612 26.1325C83.9662 26.5165 85.0748 26.9863 86.0605 27.5283C87.2807 28.1995 88.3347 28.9959 89.1439 29.8933C87.7262 25.0135 83.8803 21.167 79.0003 19.7498C79.8977 20.5591 80.6941 21.6129 81.3652 22.8331C81.9071 23.8187 82.3775 24.9274 82.7612 26.1325ZM75.4188 19.2014C77.2505 19.4592 78.9945 20.9309 80.3481 23.3924C80.7407 24.1064 81.0955 24.8952 81.4046 25.7469C79.5633 25.2843 77.5411 25.0116 75.4188 24.9694V19.2014Z" fill="black"/>
</g>
<defs>
<clipPath id="clip0_46_52">
<rect width="175" height="32.1101" fill="white" transform="translate(0 18)"/>
</clipPath>
</defs>
</svg>
