<svg width="142" height="37" viewBox="0 0 142 37" fill="none" xmlns="http://www.w3.org/2000/svg">
<path d="M64.3789 26.1123C64.379 27.6181 64.7697 28.7629 65.5527 29.5459C66.3659 30.2988 67.481 30.6748 68.8965 30.6748C70.5227 30.6748 71.8481 30.1932 72.8721 29.2295C73.8961 28.2356 74.4378 26.9252 74.498 25.2988V9.89355H80.7773V35.6895H74.9951L74.7695 32.0752C73.8962 33.4003 72.7968 34.4098 71.4717 35.1025C70.1767 35.7952 68.7457 36.1416 67.1797 36.1416C64.3185 36.1416 62.0894 35.3433 60.4932 33.7471C58.897 32.1509 58.0987 29.9522 58.0986 27.1514V9.89355H64.3789V26.1123ZM110.408 9.44238C112.998 9.44239 115.227 10.0137 117.095 11.1582C118.962 12.3027 120.346 14.005 121.25 16.2637C122.184 18.4923 122.53 21.2328 122.289 24.4854H103.993C104.234 26.8345 104.927 28.5515 106.071 29.6357C107.216 30.7199 108.751 31.2616 110.679 31.2617C112.305 31.2617 113.646 30.9006 114.7 30.1777C115.754 29.4549 116.416 28.4305 116.688 27.1055L122.063 28.4609C121.552 30.7498 120.257 32.6021 118.179 34.0176C116.131 35.4331 113.601 36.1416 110.589 36.1416C108.089 36.1416 105.876 35.6293 103.948 34.6055C102.021 33.5514 100.515 32.0298 99.4307 30.042C98.3465 28.0543 97.8037 25.6453 97.8037 22.8145C97.8037 20.134 98.301 17.7845 99.2949 15.7666C100.319 13.7488 101.779 12.1975 103.677 11.1133C105.574 9.99894 107.818 9.44238 110.408 9.44238ZM52.0234 9.98438L56.2695 9.89355V14.4561L52.0234 14.3213V28.4609C52.0234 29.4245 52.1439 30.072 52.3848 30.4033C52.6558 30.7044 53.2126 30.8554 54.0557 30.8555C54.5074 30.8555 54.915 30.8259 55.2764 30.7656C55.6677 30.7054 55.9838 30.6294 56.2246 30.5391V35.418C55.562 35.6288 54.8239 35.7798 54.0107 35.8701C53.2278 35.9906 52.4895 36.0508 51.7969 36.0508C47.8518 36.0507 45.879 34.2437 45.8789 30.6299V14.3662L42.5361 14.4561V9.89355L45.8789 9.98438V2.98145L52.0234 2.53027V9.98438ZM33.6113 35.6895H26.9248L24.1689 28.3711H9.84863L7.04785 35.6895H0.541992L13.417 2.75586H20.6904L33.6113 35.6895ZM40.8809 35.6895H34.6914V0H40.8809V35.6895ZM96.3604 9.57715C97.2639 9.57715 97.9872 9.66793 98.5293 9.84863V15.6768H98.2578C97.7458 15.4659 97.0827 15.3604 96.2695 15.3604C94.6434 15.3604 93.3188 15.8124 92.2949 16.7158C91.301 17.5892 90.6981 18.8089 90.4873 20.375V35.6895H84.2529V9.89355H89.9004L90.1709 13.9141C91.5563 11.0229 93.6197 9.57715 96.3604 9.57715ZM17.0312 8.94531C16.7603 9.81836 16.4897 10.6163 16.2188 11.3389C15.9778 12.0617 15.7361 12.7702 15.4951 13.4629L11.8359 23.04H22.1816L18.5674 13.4629C18.0855 12.1679 17.5733 10.6619 17.0312 8.94531ZM110.317 14.1855C108.631 14.1856 107.245 14.683 106.161 15.6768C105.077 16.6706 104.384 18.1915 104.083 20.2393H115.965C115.995 18.372 115.498 16.8958 114.474 15.8115C113.48 14.7275 112.094 14.1855 110.317 14.1855ZM133.032 4.60352C134.183 4.60352 135.245 4.78553 136.22 5.14941C137.194 5.51329 138.039 6.03604 138.755 6.7168C139.483 7.38585 140.046 8.19575 140.445 9.14648C140.844 10.0855 141.044 11.1301 141.044 12.2803C141.044 13.4304 140.844 14.4751 140.445 15.4141C140.046 16.3531 139.483 17.1639 138.755 17.8447C138.039 18.5136 137.194 19.0297 136.22 19.3936C135.245 19.7574 134.183 19.9395 133.032 19.9395C131.882 19.9394 130.82 19.7574 129.846 19.3936C128.872 19.0297 128.021 18.5136 127.293 17.8447C126.577 17.1639 126.019 16.3531 125.62 15.4141C125.221 14.4751 125.021 13.4305 125.021 12.2803C125.022 11.13 125.221 10.0855 125.62 9.14648C126.019 8.19569 126.577 7.38587 127.293 6.7168C128.021 6.03602 128.871 5.51328 129.846 5.14941C130.82 4.78559 131.882 4.60355 133.032 4.60352ZM133.032 6.45215C131.917 6.45219 130.908 6.68094 130.004 7.13867C129.112 7.58472 128.402 8.24272 127.874 9.11133C127.358 9.97992 127.099 11.0361 127.099 12.2803C127.099 13.4422 127.339 14.4576 127.82 15.3262C128.313 16.1948 129.006 16.8761 129.898 17.3691C130.79 17.8503 131.835 18.0908 133.032 18.0908C134.159 18.0908 135.169 17.8678 136.061 17.4219C136.953 16.9641 137.657 16.3069 138.174 15.4502C138.702 14.5816 138.966 13.5245 138.966 12.2803C138.966 11.1065 138.72 10.0854 138.227 9.2168C137.745 8.34834 137.059 7.67363 136.167 7.19238C135.287 6.69938 134.241 6.45215 133.032 6.45215ZM133.701 8.35352C134.582 8.35352 135.269 8.56571 135.762 8.98828C136.266 9.39911 136.519 9.99201 136.519 10.7666C136.518 11.1654 136.413 11.529 136.202 11.8574C135.991 12.1744 135.674 12.4391 135.251 12.6504C135.638 12.7326 135.914 12.9029 136.078 13.1611C136.254 13.4193 136.343 13.7417 136.343 14.1289V15.291C136.343 15.6077 136.419 15.8074 136.571 15.8896V16.0664H134.212C134.177 15.9373 134.142 15.7844 134.106 15.6084C134.083 15.4324 134.071 15.2327 134.071 15.0098V14.376C134.071 14.1414 134.007 13.9358 133.878 13.7598C133.761 13.572 133.549 13.4776 133.244 13.4775H132.17V16.0664H129.969V8.35352H133.701ZM132.17 11.9111H133.244C133.936 11.911 134.282 11.6288 134.282 11.0654C134.282 10.7955 134.189 10.5959 134.001 10.4668C133.813 10.326 133.561 10.2559 133.244 10.2559H132.17V11.9111Z" fill="white"/>
</svg>
