<svg width="82" height="68" viewBox="0 0 82 68" fill="none" xmlns="http://www.w3.org/2000/svg">
<g clip-path="url(#clip0_46_3)">
<path d="M80.2329 19.2383C80.2329 19.1725 80.1763 19.1216 80.1106 19.1252C80.05 19.1285 80 19.1775 80 19.2382V19.3462C80 19.5856 79.8059 19.7797 79.5665 19.7797C79.3271 19.7797 79.1331 19.5856 79.1331 19.3462C79.1331 18.9713 78.923 18.635 78.6603 18.3676C78.1825 17.8813 77.8926 17.1902 78.0361 16.5724C78.2913 15.4743 78.8953 15 79.9998 15C81.1044 15 81.9998 15.8954 81.9998 17C81.9998 17.3484 81.9107 17.6761 81.7541 17.9614C81.376 18.6498 80.8237 18.824 80.8237 19.6095V20.2849C80.8237 20.448 80.6915 20.5803 80.5283 20.5803C80.3652 20.5803 80.2329 20.448 80.2329 20.2849V19.2383Z" fill="black"/>
<path d="M44.1379 22.4724C50.1268 23.4976 56.7104 22.8724 62.5284 24.3048C69.2521 26.3078 73.0441 31.7852 62.0806 33.0682C56.2747 33.519 50.4007 32.5652 44.669 33.5793C38.5986 34.8192 32.3657 36.9076 25.7754 35.8957C19.7385 34.965 14.551 31.2814 14.7102 27.3647C14.6766 23.5172 20.3337 21.3191 25.8121 20.6162C32.1072 19.9703 38.2318 21.3161 44.1379 22.4724ZM44.4888 21.7695C12.7164 14.4052 10.7057 25.7502 10.6709 27.3221C10.4111 32.0115 16.6376 36.9074 24.0335 37.9452C31.7158 39.0233 38.3193 35.9888 45.0969 34.343C51.7091 33.1929 58.0985 34.6789 64.7151 34.1151C75.7367 33.1759 73.2713 25.1096 65.4738 23.2721C58.8566 21.7127 51.3011 22.9348 44.4888 21.7695Z" fill="black"/>
<path d="M43.4994 24.2966C48.0627 24.8847 60.2024 25.679 59.8389 29.1157C59.3749 31.1224 49.9027 30.8816 43.7806 31.537C38.4388 32.0667 25.3007 32.968 25.4668 27.5278C25.4233 22.5358 38.8059 23.7838 43.4994 24.2966ZM43.6879 23.6259C39.0218 22.9628 33.9702 22.2505 29.1853 22.8742C25.5181 23.3522 21.4345 24.8623 21.5215 27.4622C21.363 30.173 25.287 32.299 29.2117 33.0002C34.1074 33.8748 39.2579 32.9536 44.0639 32.2928C50.7603 31.4837 62.8029 32.2837 63.2834 29.4524C63.7486 25.0258 49.3675 24.3968 43.6879 23.6259Z" fill="black"/>
<path d="M43.4552 26.2781C45.7803 26.4048 51.3363 26.9854 50.8021 28.3169C50.1541 29.5982 45.1892 29.5982 43.5241 29.6495C41.4613 29.6655 35.9911 29.7246 35.7875 27.8409C35.8206 25.9623 41.6284 26.2208 43.4552 26.2781ZM43.528 25.5678C40.711 25.3928 32.0883 24.858 32.0579 27.7815C31.8312 30.5419 40.8153 30.3968 43.6659 30.4245C45.7802 30.3968 53.3273 30.334 54.3058 28.6503C55.0008 26.6951 46.3713 25.8242 43.528 25.5678Z" fill="black"/>
<path fill-rule="evenodd" clip-rule="evenodd" d="M40.7609 17.9714C42.4079 18.5706 44.0673 19.1744 45.7804 19.7322C49.2406 21.0955 54.2189 20.5366 59.425 19.9521C64.1786 19.4184 69.1222 18.8633 73.2736 19.731C77.7162 20.6598 80.1193 24.7879 79.995 28.8028L79.9994 28.797V37.7169C80.026 41.8836 77.3505 46.035 71.4281 46.4793C67.8681 46.7464 64.3959 46.2199 60.9484 45.6971C56.1374 44.9677 51.3747 44.2456 46.4897 45.6975C43.9386 46.6131 41.5658 47.8312 39.1889 49.0515C33.7526 51.8424 28.2931 54.6451 20.623 53.8687C8.41911 52.6332 -0.0860136 45.9113 0.000656343 36.5699C0.00431845 36.3945 0.0160372 36.2202 0.0321505 36.0464V28.4226C0.00749228 28.0517 -0.00251749 27.6768 0.000900483 27.297C0.146164 20.4021 10.1235 14.6883 20.9557 14.0608C28.7695 13.6082 34.6801 15.7588 40.7609 17.9714ZM57.8747 20.9756C53.1076 21.2666 48.4631 21.5501 45.227 20.5381C44.1845 20.2133 43.1186 19.8688 42.049 19.5232C39.4225 18.6743 36.7741 17.8184 34.3964 17.2294C19.1691 13.4646 4.73088 19.1027 4.00871 27.2886C3.46062 32.7192 11.2626 40.7029 21.6867 41.9019C26.412 42.3167 30.4645 41.5324 34.581 40.1343C36.2426 39.5171 37.8427 38.8418 39.4421 38.1667C41.5551 37.2749 43.6672 36.3834 45.9198 35.6265C50.7487 34.4676 55.4384 34.9999 59.976 35.5149C63.0461 35.8634 66.0463 36.2039 68.9726 36.0074C71.7887 35.6863 74.0744 34.9872 75.4887 33.3734C78.3591 29.5231 78.0719 23.04 70.393 21.1671C66.7929 20.4313 62.2814 20.7067 57.8747 20.9756Z" fill="black"/>
</g>
<defs>
<clipPath id="clip0_46_3">
<rect width="82" height="40" fill="white" transform="translate(0 14)"/>
</clipPath>
</defs>
</svg>
