<svg width="67" height="68" viewBox="0 0 67 68" fill="none" xmlns="http://www.w3.org/2000/svg">
<path d="M45.0353 18.723C45.8331 17.8366 46.7195 17.1053 47.6281 16.5291C49.2236 15.5319 50.9079 15 52.6364 15V29.4709C51.3732 25.0831 48.6475 21.3158 45.0353 18.723ZM66.5533 55H15.2957C6.87461 55 0.0712891 48.1745 0.0712891 39.7756C0.0712891 31.7313 6.3206 25.1274 14.232 24.5734V15C16.0048 15 17.7555 15.5097 19.3954 16.5291C20.304 17.0831 21.1904 17.8144 21.9882 18.6565C25.2458 16.374 29.1904 15.0443 33.4674 15.0443C33.4674 24.2853 30.1433 35.0333 19.3289 35.0554H33.3566C32.9577 33.2604 31.3178 31.9308 29.3677 31.9086H37.5228C35.5727 31.9086 33.9328 33.2604 33.5339 35.0776H46.6087C49.2236 35.0776 51.8164 35.5873 54.2541 36.6067C56.6696 37.6039 58.8857 39.0887 60.725 40.928C62.5865 42.7895 64.0491 44.9834 65.0464 47.3989C66.0436 49.7923 66.5533 52.3851 66.5533 55ZM22.8525 24.8394C23.1849 25.7036 24.0713 26.6787 25.3123 27.3878C26.5533 28.097 27.8386 28.3851 28.7472 28.2521C28.4148 27.3878 27.5284 26.4128 26.2874 25.7036C25.0464 24.9945 23.761 24.7064 22.8525 24.8394ZM41.5117 27.3878C40.2707 28.097 38.9854 28.3851 38.0768 28.2521C38.4092 27.3878 39.2957 26.4128 40.5367 25.7036C41.7777 24.9945 43.063 24.7064 43.9716 24.8394C43.6613 25.7036 42.7527 26.6787 41.5117 27.3878Z" fill="black"/>
</svg>
