<svg width="90" height="68" viewBox="0 0 90 68" fill="none" xmlns="http://www.w3.org/2000/svg">
<g clip-path="url(#clip0_46_31)">
<path d="M84.2484 12.9539C84.2484 13.0198 84.2484 13.1023 84.2316 13.1517C84.1472 13.7949 84.1472 14.438 84.1978 15.0976C84.2316 15.2625 84.2653 15.4274 84.4003 15.5594C84.6195 15.8067 84.9567 15.7572 85.0917 15.4604C85.1592 15.312 85.1592 15.1636 85.1254 15.0152C84.9567 14.3885 84.923 13.7289 84.9062 13.0858C84.9062 13.0528 84.9062 13.0033 84.9062 12.9539C85.0917 12.9374 85.2604 12.9209 85.4121 12.9209C85.5303 12.9044 85.6315 12.8879 85.7158 12.8384C85.9687 12.7065 85.9687 12.4262 85.6988 12.2942C85.5977 12.2448 85.4628 12.2283 85.3448 12.2283C84.923 12.2448 84.5015 12.2448 84.0797 12.2448C83.928 12.2448 83.7762 12.2613 83.6243 12.2777C83.54 12.2942 83.4388 12.2942 83.3714 12.3437C83.2533 12.3932 83.1859 12.4756 83.1859 12.5911C83.2028 12.7065 83.2533 12.7725 83.3714 12.8219C83.4388 12.8714 83.5232 12.8879 83.6075 12.8879C83.8099 12.9044 84.0292 12.9374 84.2484 12.9539ZM88.8865 13.7124C88.8865 13.7289 88.9034 13.7454 88.9034 13.7454C88.9709 14.1906 89.0384 14.6194 89.0889 15.0482C89.1059 15.1966 89.1227 15.3285 89.2239 15.4439C89.4431 15.7243 89.7805 15.6913 89.9322 15.3945C89.9997 15.246 90.0165 15.0976 89.9828 14.9327C89.8817 14.438 89.831 13.9433 89.7298 13.4651C89.6623 13.1682 89.5781 12.8879 89.4938 12.6241C89.4431 12.4591 89.3251 12.3437 89.1227 12.3272C88.9203 12.2942 88.7685 12.3932 88.6841 12.5416C88.583 12.6735 88.4986 12.8054 88.4311 12.9539C88.3131 13.2177 88.2119 13.4816 88.077 13.7289C88.0601 13.7949 88.0432 13.8443 88.0095 13.8938C87.9927 13.8608 87.9758 13.8443 87.9758 13.8443C87.7565 13.4321 87.5541 13.0198 87.3349 12.6241C87.3011 12.5911 87.2843 12.5581 87.2674 12.5251C87.1662 12.3767 87.0482 12.2942 86.8627 12.2942C86.694 12.3107 86.559 12.4097 86.4748 12.5581C86.441 12.6241 86.441 12.6735 86.4241 12.7395C86.3566 13.2672 86.2723 13.7949 86.2049 14.3226C86.1711 14.6194 86.1542 14.9162 86.1542 15.2131C86.1374 15.279 86.1542 15.3615 86.1879 15.4274C86.2217 15.5594 86.3229 15.6418 86.4578 15.6583C86.6265 15.6748 86.7445 15.6253 86.7952 15.4934C86.8457 15.3945 86.8627 15.312 86.8795 15.2296C86.947 14.9327 86.9975 14.6524 87.0482 14.372C87.0819 14.2071 87.0987 14.0752 87.1494 13.8938C87.1831 13.9598 87.2168 14.0093 87.2506 14.0587C87.4023 14.2566 87.5541 14.4545 87.7397 14.6194C87.9252 14.7513 88.077 14.7348 88.2287 14.5864C88.2625 14.5534 88.2794 14.537 88.3131 14.504C88.4649 14.2731 88.6505 14.0422 88.8022 13.8114C88.836 13.7784 88.8528 13.7454 88.8865 13.7124Z" fill="black"/>
<path d="M50.0253 13.2777C49.9081 13.5911 49.8857 13.8169 49.9398 14.0046C49.9996 14.2598 50.1548 14.3433 50.3654 14.2784C52.3464 13.7994 56.6905 15.1589 58.2988 15.5379C58.6781 15.6174 58.9866 15.1387 58.7278 14.7095C58.3501 14.2938 54.008 12.5141 52.3512 12.4171C51.7018 12.3812 50.5408 12.2184 50.0253 13.2777Z" fill="black"/>
<path d="M67.0031 7.51693C67.2142 7.63608 67.3323 7.74974 67.3905 7.87673C67.4773 8.0433 67.4315 8.15855 67.2857 8.21736C65.9762 8.84225 64.2337 11.5325 63.5303 12.4603C63.3598 12.6738 62.9665 12.5497 62.9071 12.1987C62.9193 11.8019 64.464 8.88235 65.326 8.08717C65.6648 7.77671 66.2245 7.16755 67.0031 7.51693Z" fill="black"/>
<path d="M56.5743 6.19259C56.8279 6.00568 57.0915 5.94018 57.2261 6.06165C59.2019 7.71373 60.2496 10.3299 60.8984 12.725C60.9228 12.7808 60.9243 12.8609 60.9048 12.9444C60.8967 13.0158 60.8433 13.0912 60.7586 13.1496C60.6681 13.214 60.5902 13.2336 60.5535 13.1781C59.6876 12.0266 54.7419 7.54597 56.5743 6.19259Z" fill="black"/>
<path d="M14.7356 34.8354C15.2091 34.4907 15.7239 34.2037 16.2687 33.9811C16.8386 33.8218 17.4461 33.8481 17.9994 34.0564C18.5525 34.2647 19.0214 34.6433 19.3348 35.1352C19.6152 35.6259 19.7249 36.1924 19.6475 36.7493C19.5701 37.3062 19.3098 37.8234 18.9055 38.2231C18.5922 38.5471 18.2364 38.8294 17.8478 39.0626C16.1154 40.1569 14.3676 41.1911 12.6199 42.2854C12.2623 42.5592 11.8829 42.8049 11.4854 43.0199C10.8808 43.3147 10.1898 43.3936 9.53187 43.2431C8.874 43.0927 8.29062 42.722 7.88261 42.1955C7.5776 41.8226 7.32019 41.4149 7.11606 40.9813C5.46031 37.5786 3.74325 34.1909 2.14883 30.7282C1.41294 29.2293 0.815031 27.5054 0.232455 25.8416C-0.0195951 25.3582 -0.0688147 24.7977 0.0952762 24.2793C0.259367 23.7609 0.623822 23.3256 1.11112 23.0659C1.59841 22.8061 2.17009 22.7426 2.70459 22.8887C3.23909 23.0347 3.69423 23.3789 3.9732 23.848C4.83071 24.9622 5.58978 26.1457 6.24219 27.3856C7.89794 30.3835 9.47704 33.3814 11.0715 36.2894C11.1643 36.4501 11.2667 36.6052 11.3781 36.7541C12.5781 36.2608 13.7069 35.6157 14.7356 34.8354Z" fill="black"/>
<path d="M31.855 33.7897C28.0683 38.1217 21.7213 37.0274 18.5325 31.4512C16.2634 27.4939 15.8649 20.9584 20.8015 16.8362C21.8556 15.9732 23.1162 15.3853 24.4655 15.1274C26.12 14.8955 27.8071 15.1809 29.2857 15.9428C30.7642 16.7046 31.9587 17.904 32.6983 19.3695C35.3965 24.1663 35.0133 30.282 31.855 33.7897ZM30.3219 23.6866C29.9196 22.5078 29.1126 21.5015 28.0376 20.8384C27.4293 20.4145 26.6902 20.2084 25.9447 20.2549C25.1991 20.3013 24.4928 20.5974 23.9443 21.0933C21.752 22.997 21.292 27.509 22.8864 30.1921C23.0897 30.6297 23.3881 31.0185 23.7611 31.3314C24.1341 31.6444 24.5725 31.8739 25.0456 32.0037C25.5188 32.1337 26.0152 32.161 26.5003 32.0837C26.9854 32.0063 27.4472 31.8263 27.8538 31.5562C29.0421 30.6553 29.914 29.4148 30.348 28.0072C30.7822 26.5995 30.757 25.0945 30.276 23.7016L30.3219 23.6866Z" fill="black"/>
<path d="M47.3083 25.5753C46.9207 25.6568 46.5201 25.6617 46.1304 25.5896C45.7409 25.5174 45.3698 25.37 45.0394 25.1556C44.7502 24.9939 44.5013 24.7716 44.3105 24.5045C44.1199 24.2375 43.9921 23.9325 43.9364 23.6114C43.8806 23.2903 43.8984 22.9612 43.9883 22.6476C44.0783 22.334 44.2384 22.0438 44.4568 21.7979C44.8374 21.3036 45.3777 20.9498 45.9899 20.7936C47.5884 20.34 49.234 20.0634 50.8958 19.9692C51.261 19.9277 51.6309 19.9579 51.9838 20.058C52.3368 20.1583 52.6657 20.3264 52.9514 20.5526C53.237 20.7788 53.4736 21.0586 53.6471 21.3754C53.8206 21.6922 53.9277 22.0397 53.962 22.3975C54.441 24.1551 54.4935 25.9979 54.1153 27.7789C52.7356 33.5349 47.9829 35.5135 42.6477 33.6698C41.1501 33.1768 39.837 32.2583 38.8763 31.0316C37.595 29.5543 36.6865 27.8036 36.224 25.9201C35.8494 24.2429 35.8904 22.5026 36.3438 20.8441C36.7972 19.1857 37.6497 17.6573 38.8303 16.3866C39.9507 15.0055 41.4048 13.9186 43.0617 13.2238C44.1087 12.6595 45.3338 12.4991 46.4959 12.7741C46.7594 12.8454 46.9987 12.9844 47.1888 13.1766C47.379 13.3689 47.5131 13.6073 47.5773 13.8673C47.6414 14.1273 47.6332 14.3993 47.5536 14.6552C47.4739 14.911 47.3258 15.1414 47.1244 15.3223C46.7416 15.6612 46.3256 15.9624 45.8826 16.2217C44.5196 17.0704 43.3335 18.1639 42.3871 19.4445C41.7667 20.2731 41.3395 21.2247 41.1356 22.232C40.9315 23.2394 40.9558 24.2783 41.2067 25.2756C41.5543 26.6354 42.3259 27.8559 43.4142 28.7681C46.7871 31.7661 51.1717 28.873 50.4052 24.7808C49.2861 25.0507 48.3049 25.3355 47.3083 25.5753Z" fill="black"/>
<path d="M67.9134 34.0294C62.9308 37.0274 57.2584 34.0294 56.0165 27.7338C55.112 23.2369 56.8291 16.9411 62.8389 14.5428C64.1175 14.0435 65.5044 13.8682 66.8709 14.0331C68.5126 14.327 70.0187 15.1172 71.1766 16.2924C72.3345 17.4677 73.0862 18.9685 73.3252 20.5837C74.337 25.9349 72.0374 31.6461 67.9134 34.0294ZM69.6459 23.9413C69.6443 22.6961 69.1938 21.4911 68.3734 20.5387C67.9348 19.9495 67.3008 19.5274 66.5796 19.3442C65.8581 19.1611 65.0943 19.2283 64.4179 19.5344C61.7197 20.6735 59.8186 24.8107 60.5085 27.8537C60.5613 28.3312 60.7199 28.7918 60.9736 29.2031C61.2273 29.6144 61.5698 29.9665 61.9772 30.235C62.3845 30.5033 62.847 30.6815 63.3321 30.757C63.8173 30.8323 64.3135 30.8033 64.7859 30.6718C66.2121 30.1846 67.447 29.2742 68.3182 28.0675C69.1896 26.8609 69.6537 25.4183 69.6459 23.9413Z" fill="black"/>
<path d="M78.364 35.2886C78.2888 35.8372 77.9938 36.3342 77.5438 36.6701C77.0938 37.0059 76.5258 37.1534 75.9647 37.0799C75.4036 37.0063 74.8954 36.7178 74.5518 36.2778C74.2082 35.838 74.0575 35.2826 74.1327 34.734C74.2079 34.1853 74.503 33.6884 74.9529 33.3525C75.4029 33.0165 75.9709 32.8692 76.532 32.9427C77.0931 33.0162 77.6013 33.3046 77.945 33.7446C78.2885 34.1846 78.4393 34.74 78.364 35.2886ZM77.0302 15.0674C77.3218 14.632 77.7495 14.3004 78.2497 14.1221C78.7497 13.9438 79.2954 13.9284 79.8051 14.0781C80.3234 14.2048 80.7813 14.5019 81.1023 14.9194C81.4232 15.3369 81.5877 15.8495 81.5682 16.3715C81.5006 17.2087 81.3726 18.0402 81.185 18.8598C80.679 21.6329 80.1884 24.4059 79.6519 27.1491C79.4066 28.2434 79.0846 29.2927 78.732 30.4019C78.6093 30.7486 78.4044 31.062 78.1341 31.3163C77.9661 31.5076 77.7515 31.6543 77.51 31.7429C77.2686 31.8316 77.0082 31.8592 76.753 31.8234C76.4978 31.7875 76.2558 31.6893 76.0497 31.5378C75.8436 31.3862 75.6799 31.1863 75.5739 30.9565C75.3915 30.5443 75.2925 30.1014 75.2825 29.6524C75.2825 27.7937 75.2825 25.92 75.4052 24.0462C75.6136 21.3722 76.0235 18.7168 76.6316 16.1017C76.7032 15.7513 76.8381 15.4163 77.0302 15.1123V15.0674Z" fill="black"/>
<path fill-rule="evenodd" clip-rule="evenodd" d="M8.25828 47.3341C8.07727 47.7292 8.02763 48.1697 8.11608 48.5936C8.17493 49.1524 8.30418 49.702 8.5009 50.2299C8.74649 50.8764 9.02132 51.5156 9.36018 52.3035C9.43811 52.4848 9.51954 52.6741 9.60476 52.8732C10.0617 53.9406 10.6351 55.3048 11.3999 57.279C11.6164 57.8398 11.8086 58.4053 12.0022 58.9746C12.0804 59.2046 12.1589 59.4354 12.2392 59.6667C12.5271 60.489 13.0226 61.2278 13.6794 61.8133C13.9582 62.1351 14.3281 62.3696 14.7429 62.4869C15.1658 62.6065 15.6155 62.5989 16.0339 62.4652C16.4523 62.3313 16.8197 62.0775 17.0886 61.7367C17.3521 61.4025 17.5089 60.9998 17.5393 60.5792C17.7103 59.7596 17.652 58.9099 17.3701 58.1198C16.9228 56.808 16.4133 55.4943 15.8257 54.2093L15.823 54.2037C14.8564 52.1933 13.8739 50.1969 12.8449 48.1997L12.8371 48.1856C12.5359 47.6653 12.1444 47.2001 11.6803 46.8111C11.379 46.4638 10.9633 46.2296 10.5043 46.1488C10.0355 46.0664 9.55206 46.1495 9.14019 46.3833C8.75057 46.6009 8.44172 46.9337 8.25828 47.3341Z" fill="black"/>
<path fill-rule="evenodd" clip-rule="evenodd" d="M23.0219 42.3839C21.5063 42.0001 19.9235 41.9442 18.3837 42.2201C17.1911 42.3349 16.0181 42.6039 15.2036 43.1367C14.7894 43.4078 14.4544 43.756 14.2681 44.1985C14.0808 44.6435 14.0569 45.1524 14.2104 45.7194C14.4907 46.758 14.8547 47.7678 15.2174 48.7744L15.2761 48.9374L15.2775 48.941C16.3696 51.8652 17.4721 54.7796 18.5847 57.6839C18.7144 58.1416 18.8979 58.5831 19.1313 58.9995L19.1357 59.0073C19.4442 59.5246 19.8398 59.9874 20.3058 60.376C20.5389 60.5897 20.8272 60.7376 21.1398 60.8037C21.4554 60.8703 21.7836 60.851 22.0887 60.7476C22.394 60.6444 22.6642 60.4611 22.8702 60.2179C23.0728 59.9786 23.2055 59.6904 23.2542 59.3836C23.4553 58.5502 23.3909 57.6765 23.0695 56.8799C22.9692 56.6118 22.8905 56.3379 22.8076 56.0495C22.7799 55.9533 22.7519 55.8555 22.7223 55.7558C25.269 54.7825 27.9786 53.4738 28.9314 50.4292C29.3046 49.3771 29.3357 48.2379 29.0204 47.1676C28.7049 46.0962 28.0575 45.1466 27.1676 44.4495C25.9563 43.4736 24.5414 42.7686 23.0219 42.3839ZM18.8208 46.1182C18.871 46.1041 18.9215 46.091 18.9722 46.0788C20.6301 45.8239 22.3263 46.1635 23.7486 47.0347C24.3754 47.4609 24.6321 47.9344 24.6762 48.3901C24.7218 48.8592 24.5473 49.3676 24.1968 49.8563C23.5345 50.7795 22.326 51.5184 21.2343 51.6561C20.4384 49.864 19.6302 47.9995 18.8208 46.1182Z" fill="black"/>
<path d="M33.126 39.1037C34.9309 38.2887 37.1666 38.1479 38.9161 38.7209C39.3567 38.8464 39.739 39.1178 39.9975 39.4887C40.2544 39.8574 40.373 40.3016 40.3334 40.7457C40.3308 41.0339 40.2584 41.3175 40.1222 41.5734C39.9836 41.8339 39.7829 42.0579 39.5371 42.2265C39.2913 42.3951 39.0075 42.5035 38.7099 42.5422C38.4121 42.581 38.1093 42.5491 37.8269 42.4492L37.8054 42.4416L37.7852 42.4312C37.6407 42.3573 37.4872 42.3016 37.3284 42.2654L37.3184 42.2632C36.0877 41.9436 34.9268 42.4731 34.5028 43.1238C34.3005 43.4341 34.2755 43.7473 34.4439 44.0322C34.6243 44.3373 35.0667 44.6797 35.9619 44.9237C36.2081 44.9898 36.4605 45.0536 36.7165 45.1184C37.4244 45.2976 38.1601 45.4838 38.8715 45.7418L38.8742 45.7428C42.1561 46.9638 43.3782 49.4924 42.9598 51.8707C42.5459 54.2226 40.537 56.3631 37.516 56.868C36.4167 57.1062 35.2727 57.0598 34.1972 56.7334C33.119 56.4059 32.1471 55.8084 31.3781 55L31.358 54.9789C31.1153 54.6743 30.952 54.3165 30.8796 53.9368C30.813 53.5942 30.8481 53.2401 30.9806 52.9162C31.1122 52.5943 31.3349 52.3157 31.6223 52.1127C31.9258 51.8825 32.2917 51.7444 32.6747 51.7156C33.0565 51.687 33.4385 51.7681 33.7736 51.9489C34.1084 52.107 34.4198 52.3087 34.6994 52.5486L34.7046 52.553C35.1991 52.9952 35.7974 53.1104 36.371 53.0037C36.9531 52.8954 37.5004 52.5587 37.8524 52.1119C38.2022 51.6679 38.3426 51.1405 38.1759 50.6286C38.0083 50.1129 37.5041 49.5351 36.3965 49.052C36.107 48.9318 35.8067 48.8349 35.4944 48.7405C35.4102 48.715 35.3246 48.6897 35.2379 48.664C35.007 48.5955 34.7694 48.5249 34.5365 48.4471C34.376 48.3936 34.2168 48.3429 34.0592 48.2927C33.6284 48.1555 33.2083 48.0218 32.8041 47.8424C31.9243 47.5495 31.1642 46.9872 30.6369 46.2385C30.1074 45.4869 29.841 44.588 29.8773 43.6762C29.8801 41.4541 31.3115 39.9232 33.126 39.1037Z" fill="black"/>
<path d="M56.0084 38.8669C55.6585 38.6997 55.2715 38.6204 54.8824 38.636C54.4932 38.6516 54.1142 38.7617 53.7795 38.9565C53.4469 39.1499 53.1684 39.4206 52.9689 39.7448C52.7859 40.0177 52.6593 40.3229 52.5962 40.6435C52.533 40.9637 52.5346 41.2929 52.6005 41.6124C52.6657 42.023 52.738 42.4224 52.8093 42.8162C52.9275 43.4679 53.0424 44.105 53.1183 44.7545L53.1211 44.771C53.2938 45.7897 53.3842 46.8199 53.3923 47.8523L53.393 47.867C53.4521 48.982 53.0635 50.0752 52.3107 50.9148L52.2988 50.9297C52.0538 51.2366 51.7264 51.4708 51.3529 51.6062C50.9795 51.7416 50.575 51.7727 50.1845 51.6961C49.7941 51.6195 49.4332 51.4382 49.1421 51.1724C48.851 50.9067 48.641 50.566 48.5363 50.1904C48.3125 49.3988 48.1831 48.5845 48.1502 47.764L48.5323 41.8159C48.5379 41.7382 48.5444 41.6585 48.5509 41.578C48.5654 41.3974 48.5804 41.2134 48.5865 41.0418C48.5955 40.7893 48.5878 40.5295 48.5276 40.2837C48.4661 40.0325 48.3489 39.7935 48.1412 39.59C47.9354 39.3885 47.6577 39.2398 47.3083 39.1387C46.6763 38.9598 46.142 38.9655 45.6968 39.1502C45.2513 39.335 44.946 39.678 44.73 40.0743C44.5157 40.4672 44.378 40.9324 44.2739 41.3983C44.1966 41.744 44.1345 42.107 44.0755 42.4525C44.055 42.5715 44.0351 42.6884 44.0149 42.8019L44.0144 42.8053C43.6986 44.6999 43.6046 46.6236 43.7342 48.539C43.7584 49.5742 43.9792 50.5959 44.3855 51.5521C44.8438 52.7859 45.674 53.8548 46.7665 54.6179C47.8613 55.3825 49.1677 55.8038 50.5128 55.8261C51.8579 55.8483 53.1782 55.4704 54.2988 54.7426C55.4177 54.0158 56.2847 52.9741 56.7854 51.7554C57.4857 50.2029 57.8146 48.5145 57.7467 46.8189C57.7056 45.581 57.6367 44.3336 57.5681 43.0925C57.5345 42.4837 57.5009 41.8762 57.4708 41.2724C57.4556 40.667 57.2515 40.0806 56.8856 39.5919C56.6591 39.2829 56.3578 39.0337 56.0084 38.8669Z" fill="black"/>
<path d="M68.3949 48.1937C68.3594 48.2378 68.322 48.2834 68.2829 48.3309C67.9982 46.7253 67.7344 45.1202 67.4702 43.5127C67.3754 42.9359 67.2801 42.3567 67.1844 41.7791L67.1736 41.7147L67.1386 41.659C67.0726 41.5543 67.0661 41.4515 67.0661 41.2324V41.2071L67.0621 41.182C66.9906 40.7296 66.7813 40.3085 66.4615 39.974C66.1427 39.6403 65.7285 39.4081 65.273 39.3073C64.8183 39.1977 64.3404 39.2218 63.8995 39.3769C63.4598 39.5316 63.0765 39.8095 62.7975 40.176C62.5656 40.4572 62.3754 40.7691 62.2329 41.1023C61.9096 41.8203 61.5834 42.54 61.2563 43.2617L61.2507 43.2742C60.4341 45.0758 59.612 46.8896 58.8139 48.7176L58.8114 48.7235C58.3214 49.9088 57.9169 51.1578 57.5139 52.4029C57.4334 52.6514 57.3529 52.8998 57.2718 53.1475C57.1262 53.5405 57.0626 53.9578 57.0844 54.375C57.058 54.7485 57.1494 55.1211 57.3466 55.4424C57.5477 55.7703 57.8489 56.0282 58.2078 56.18C58.5881 56.3431 59.0133 56.3776 59.4161 56.2784C59.818 56.1793 60.1749 55.9525 60.4306 55.6336C60.7572 55.2408 61.0381 54.8124 61.2672 54.3586C61.9434 53.0063 62.5896 51.6375 63.2328 50.2746C63.4818 49.7475 63.7236 49.2754 63.9988 48.7612C64.0177 48.8246 64.0369 48.8864 64.0569 48.9484C64.3453 50.1898 64.832 51.3788 65.4992 52.4719C65.6254 52.7035 65.8013 52.9058 66.0147 53.0651C66.2307 53.2264 66.4801 53.3395 66.7453 53.397C67.0105 53.4544 67.2854 53.4547 67.5508 53.3977C67.8158 53.3409 68.0658 53.2276 68.282 53.0672L68.7097 52.7541L72.0298 50.0198L71.8335 51.2431C71.564 52.9247 71.2966 54.5923 71.0124 56.2603C70.8265 56.9995 70.8268 57.7718 71.0132 58.5108C71.094 58.9267 71.2997 59.3096 71.6041 59.6107C71.9112 59.9143 72.3043 60.1205 72.7327 60.2028C73.1611 60.2849 73.605 60.2394 74.0065 60.0719C74.4022 59.9069 74.7388 59.631 74.9741 59.2794C75.5216 58.6153 75.8623 57.8113 75.9559 56.9632C76.0968 55.7654 76.256 54.5513 76.4153 53.3376C76.5987 51.9386 76.7822 50.54 76.9371 49.1683L76.9377 49.164C77.0868 47.6624 77.1589 46.1547 77.1539 44.646C77.1866 44.1693 77.0652 43.6943 76.8065 43.2884C76.5469 42.8811 76.1625 42.5644 75.7081 42.3833C75.2355 42.1732 74.7064 42.117 74.1987 42.2232C73.6943 42.3286 73.2378 42.5886 72.8952 42.9652C72.2829 43.519 71.7084 44.1115 71.1755 44.7391L71.1719 44.7433C70.5901 45.4522 70.0123 46.1749 69.4382 46.8929C69.0891 47.3294 68.7411 47.7649 68.3949 48.1937Z" fill="black"/>
</g>
<defs>
<clipPath id="clip0_46_31">
<rect width="90" height="56.5714" fill="white" transform="translate(0 6)"/>
</clipPath>
</defs>
</svg>
