<svg width="194" height="68" viewBox="0 0 194 68" fill="none" xmlns="http://www.w3.org/2000/svg">
<g clip-path="url(#clip0_46_70)">
<path d="M74.6383 28.2567C74.6383 34.3895 74.6383 36.8105 66.2938 36.8105C74.6383 36.8105 74.6383 39.2314 74.6383 45.3642C74.6383 39.2678 74.6383 36.8105 82.852 36.8105C74.6383 36.8105 74.6383 34.3531 74.6383 28.2567Z" fill="black"/>
<path fill-rule="evenodd" clip-rule="evenodd" d="M33.4964 50.4916C30.6105 50.4916 28.0734 49.9289 25.885 48.8035C23.7206 47.6546 22.0252 46.0602 20.7988 44.0203C20.6012 43.6813 20.4198 43.3331 20.2547 42.9758L19.2857 49.9992H0.0588379V49.6476H0.0949441C0.960658 49.6476 1.65808 49.4248 2.18713 48.9793C2.71618 48.5338 2.9807 47.8891 2.9807 47.045V26.7868C2.9807 25.9429 2.71618 25.2628 2.18713 24.747C1.65808 24.2312 0.960658 23.9733 0.0949441 23.9733H0.0588379V23.6216H11.5661V23.9733H11.4218C10.556 23.9733 9.85857 24.2312 9.32957 24.747C8.80049 25.2628 8.53599 25.9429 8.53599 26.7868V47.1857C8.53599 47.936 8.71637 48.5222 9.07704 48.9442C9.46182 49.3428 10.1232 49.542 11.061 49.542H11.8186C13.9589 49.542 15.7625 48.8973 17.2295 47.6077C18.6603 46.3499 19.5763 44.5903 19.9776 42.329C19.3226 40.6746 18.9951 38.8351 18.9951 36.8105C18.9951 34.0671 19.5963 31.6756 20.7988 29.6356C22.0252 27.5723 23.7206 25.9779 25.885 24.8525C28.0734 23.7036 30.6105 23.1292 33.4964 23.1292C36.3127 23.1292 38.7854 23.6763 40.9146 24.7704C43.1857 23.6763 45.8233 23.1292 48.8274 23.1292C49.7653 23.1292 50.5348 23.1644 51.136 23.2346C51.7613 23.2816 52.3144 23.3402 52.7953 23.4105C53.2764 23.4809 53.8054 23.5511 54.3826 23.6216C54.9838 23.6684 55.7293 23.6918 56.6191 23.6918L57.7013 30.726H57.3405C56.9076 28.4985 55.9337 26.7517 54.4187 25.4855C52.9276 24.2194 51.0638 23.5863 48.8274 23.5863C47.4566 23.5863 46.2061 23.9029 45.0758 24.5359C44.3312 24.953 43.6596 25.4769 43.0612 26.1077C42.7827 26.4011 42.52 26.7178 42.2732 27.0576C42.2453 27.0959 42.2176 27.1346 42.1902 27.1736C41.9581 27.5094 41.7405 27.8653 41.5373 28.2413C41.2698 28.7361 41.0272 29.2663 40.8097 29.8304C40.7196 30.0633 40.6339 30.3022 40.5525 30.5472C40.4686 30.7997 40.3891 31.0587 40.3142 31.3239C39.8813 32.9417 39.6649 34.7354 39.6649 36.7049C39.6649 38.5204 39.8345 40.1898 40.1738 41.7136L39.6004 43.3736C39.3004 44.2423 38.9413 45.0024 38.5287 45.6608C38.2748 46.0514 38.0059 46.4022 37.7232 46.7153L37.6963 46.7453C36.8034 45.9524 36.0406 45.0441 35.4083 44.0203C34.1337 41.9569 33.4964 39.5302 33.4964 36.74C33.4964 34.0202 34.1337 31.6404 35.4083 29.6005C36.2785 28.2076 37.3843 27.0281 38.7254 26.0616C38.1833 25.4481 37.5827 24.9396 36.9233 24.5359C35.8892 23.9029 34.7469 23.5863 33.4964 23.5863C32.2458 23.5863 31.1036 23.9029 30.0694 24.5359C29.0354 25.169 28.1576 26.06 27.4361 27.209C26.6907 28.3579 26.1135 29.7528 25.7047 31.3941C25.3199 33.0119 25.1274 34.8057 25.1274 36.7752C25.1274 38.7448 25.3199 40.5384 25.7047 42.1562C26.1135 43.7741 26.6907 45.1575 27.4361 46.3063C28.1576 47.4554 29.0354 48.3463 30.0694 48.9793C31.1036 49.6125 32.2458 49.9289 33.4964 49.9289C34.7469 49.9289 35.8892 49.6125 36.9233 48.9793C37.9574 48.3463 38.8472 47.4554 39.5927 46.3063C40.3142 45.1575 40.8672 43.7741 41.252 42.1562C41.6609 40.5384 41.8653 38.7448 41.8653 36.7752C41.8653 34.9945 41.6982 33.3575 41.3639 31.8643L41.9828 30.2599C42.3351 29.3467 42.7514 28.5495 43.2264 27.861C43.3533 27.6812 43.4844 27.5097 43.6196 27.3461C43.7371 27.2038 43.8577 27.0676 43.9814 26.9372L44.0085 26.915C44.8459 27.7069 45.5623 28.6137 46.158 29.6356C47.3844 31.6756 47.9977 34.0671 47.9977 36.8105C47.9977 39.5537 47.3844 41.9569 46.158 44.0203C45.3427 45.4033 44.3009 46.5815 43.0325 47.555C43.565 48.1233 44.1499 48.5981 44.7872 48.9793C45.8694 49.6125 47.0718 49.9289 48.3945 49.9289C49.3805 49.9289 50.3184 49.7649 51.2082 49.4366C52.122 49.1083 52.8194 48.698 53.3004 48.2056V39.2373C53.3004 38.3931 53.0359 37.7131 52.5068 37.1972C51.9777 36.6815 51.2803 36.4235 50.4146 36.4235H50.3064V36.0718H60.1516C60.2509 33.6356 60.8471 31.4903 61.9405 29.6356C63.1669 27.5723 64.8624 25.9779 67.0267 24.8525C69.2151 23.7036 71.7523 23.1292 74.6381 23.1292C77.5239 23.1292 80.049 23.7036 82.2133 24.8525C84.4016 25.9779 86.0972 27.5723 87.3 29.6356C88.09 30.9499 88.6258 32.4102 88.9065 34.0164V26.7868C88.9065 25.9429 88.6423 25.2628 88.1131 24.747C87.584 24.2312 86.8864 23.9733 86.0204 23.9733H85.9849V23.6216H107.689C109.541 23.645 111.152 23.9615 112.522 24.5711C113.918 25.1574 114.999 25.9779 115.769 27.0331C116.059 27.4181 116.295 27.8283 116.479 28.2634C116.775 26.9052 117.493 25.7916 118.633 24.9229C120.197 23.727 122.253 23.1292 124.801 23.1292C125.427 23.1292 125.932 23.1526 126.317 23.1996C126.48 23.2182 126.638 23.2386 126.793 23.261C127.028 23.2949 127.254 23.3329 127.471 23.3753C127.856 23.4457 128.301 23.5043 128.806 23.5511C129.311 23.5981 129.96 23.6216 130.754 23.6216H142.149V23.9733H142.041C141.175 23.9733 140.478 24.2312 139.949 24.747C139.42 25.2628 139.155 25.9429 139.155 26.7868V40.7495C139.155 43.2349 139.805 45.2045 141.103 46.6581C142.426 48.0884 144.206 48.8035 146.442 48.8035C148.702 48.8035 150.482 48.0766 151.781 46.623C153.079 45.1458 153.729 43.188 153.729 40.7495V27.3144C153.729 26.3063 153.416 25.5091 152.791 24.9229C152.165 24.3366 151.336 24.0201 150.302 23.9733V23.6216H162.207L171.009 43.4927L179.811 23.6216H186.556V23.9733C185.787 23.9733 185.137 24.196 184.608 24.6415C184.079 25.087 183.839 25.6966 183.886 26.4703L185.727 47.2911C185.846 48.0884 186.231 48.6863 186.881 49.0849C187.554 49.4834 188.215 49.6827 188.864 49.6827V49.9992H177.682V49.6827C178.091 49.6827 178.511 49.589 178.945 49.4013C179.377 49.2139 179.727 48.9442 179.991 48.5924C180.28 48.2407 180.388 47.8305 180.315 47.3615L178.548 27.9475L168.52 50.4916L158.42 27.9123L156.724 46.4119C156.627 47.3497 156.904 48.1118 157.554 48.698C158.202 49.2842 158.997 49.6006 159.934 49.6476V49.9992H152.72V49.6476C153.633 49.6006 154.403 49.2725 155.028 48.6629C155.654 48.0532 156.014 47.2911 156.111 46.3768L157.914 26.9275C157.457 26.0131 156.88 25.298 156.182 24.7822C156.064 24.6869 155.939 24.6001 155.807 24.5216C155.618 24.6374 155.442 24.771 155.28 24.9229C154.654 25.5091 154.342 26.3063 154.342 27.3144V40.7495C154.342 42.7191 153.921 44.4307 153.079 45.8843C152.262 47.3381 151.072 48.4752 149.508 49.2959C147.969 50.0931 146.129 50.4916 143.989 50.4916C141.873 50.4916 140.033 50.0931 138.47 49.2959C136.907 48.4986 135.692 47.3731 134.827 45.9195C133.985 44.4423 133.564 42.7191 133.564 40.7495V26.7868C133.564 25.9429 133.299 25.2628 132.77 24.747C132.26 24.2498 131.594 23.9924 130.772 23.9743L131.114 30.726H130.754C130.418 28.5453 129.696 26.822 128.59 25.5559C127.483 24.2898 126.149 23.6567 124.585 23.6567C123.479 23.6567 122.589 23.9733 121.916 24.6063C121.267 25.2394 120.942 26.0835 120.942 27.1386C120.942 28.0529 121.243 28.9322 121.844 29.7764C122.469 30.597 123.539 31.5583 125.054 32.6604L126.605 33.7858C128.193 34.9113 129.443 35.9546 130.357 36.9159C131.295 37.8538 131.968 38.7683 132.377 39.6592C132.786 40.5502 132.991 41.4998 132.991 42.508C132.991 44.0554 132.594 45.4272 131.799 46.6228C131.006 47.8187 129.9 48.7566 128.481 49.4366C127.087 50.0931 125.439 50.4448 123.539 50.4916C122.914 50.4916 122.397 50.4682 121.988 50.4214C121.603 50.3744 121.219 50.3158 120.834 50.2455C120.449 50.1751 119.98 50.1165 119.427 50.0696C118.874 50.0228 118.116 49.9992 117.155 49.9992L115.891 40.8549H116.325C116.686 43.7389 117.503 45.9664 118.778 47.5374C120.076 49.0849 121.735 49.8586 123.755 49.8586C125.246 49.8586 126.461 49.4484 127.399 48.6276C128.337 47.807 128.806 46.7401 128.806 45.4272C128.806 44.8643 128.698 44.3251 128.481 43.8093C128.288 43.2935 127.952 42.7425 127.471 42.1562C126.99 41.5702 126.353 40.9371 125.559 40.257C124.766 39.5537 123.779 38.7683 122.601 37.9007L121.122 36.8105C119.319 35.474 118.068 34.2781 117.371 33.2231C117.15 32.8898 116.965 32.5472 116.814 32.1951C116.634 33.046 116.285 33.8224 115.769 34.5244C114.999 35.5794 113.893 36.4119 112.451 37.0214C111.032 37.6076 109.348 37.9007 107.4 37.9007H104.081V46.8339C104.081 47.678 104.346 48.358 104.875 48.8737C105.404 49.3898 106.101 49.6476 106.967 49.6476H107.039V49.9992H85.9849V49.6476H86.0204C86.8864 49.6476 87.584 49.3898 88.1131 48.8737C88.6423 48.358 88.9065 47.678 88.9065 46.8339V39.609C88.6258 41.2206 88.09 42.691 87.3 44.0203C86.0972 46.0602 84.4016 47.6546 82.2133 48.8035C80.049 49.9289 77.5239 50.4916 74.6381 50.4916C71.7523 50.4916 69.2151 49.9289 67.0267 48.8035C64.8624 47.6546 63.1669 46.0602 61.9405 44.0203C60.743 41.9655 60.1417 39.5736 60.1368 36.8443C59.9747 36.9442 59.8241 37.0618 59.6853 37.1972C59.1562 37.7131 58.8917 38.3931 58.8917 39.2373V48.2056C58.4107 48.6745 57.6412 49.0849 56.583 49.4366C55.549 49.7649 54.3706 50.0228 53.0478 50.2103C51.7493 50.3979 50.4506 50.4916 49.1521 50.4916C46.0129 50.4916 43.2792 49.9497 40.9508 48.8655C38.8134 49.9497 36.3286 50.4916 33.4964 50.4916ZM78.065 48.9793C77.031 49.6125 75.8886 49.9289 74.6381 49.9289C73.3876 49.9289 72.2453 49.6125 71.2111 48.9793C70.1771 48.3463 69.2993 47.4554 68.5778 46.3063C67.8324 45.1575 67.2552 43.7741 66.8463 42.1562C66.4616 40.5384 66.2691 38.7448 66.2691 36.7752C66.2691 34.8057 66.4616 33.0119 66.8463 31.3941C67.2552 29.7528 67.8324 28.3579 68.5778 27.209C69.2993 26.06 70.1771 25.169 71.2111 24.5359C72.2453 23.9029 73.3876 23.5863 74.6381 23.5863C75.8886 23.5863 77.031 23.9029 78.065 24.5359C79.0991 25.169 79.9889 26.06 80.7344 27.209C81.4559 28.3579 82.0089 29.7528 82.3937 31.3941C82.8025 33.0119 83.0072 34.8057 83.0072 36.7752C83.0072 38.7448 82.8025 40.5384 82.3937 42.1562C82.0089 43.7741 81.4559 45.1575 80.7344 46.3063C79.9889 47.4554 79.0991 48.3463 78.065 48.9793ZM97.7322 48.8737C97.3946 49.2034 96.9876 49.4277 96.5121 49.5468C96.0366 49.4277 95.6296 49.2034 95.2911 48.8737C94.7628 48.358 94.4978 47.678 94.4978 46.8339V26.7868C94.4978 25.9429 94.7628 25.2628 95.2911 24.747C95.6296 24.4173 96.0366 24.193 96.5121 24.0741C96.9876 24.193 97.3946 24.4173 97.7322 24.747C98.2614 25.2628 98.5264 25.9429 98.5264 26.7868V46.8339C98.5264 47.678 98.2614 48.358 97.7322 48.8737ZM106.21 37.4435H104.081V24.0787H106.173C107.208 24.0787 108.109 24.3718 108.879 24.9581C109.649 25.5207 110.238 26.3063 110.647 27.3144C111.079 28.3226 111.296 29.4715 111.296 30.7611C111.296 32.0507 111.079 33.1996 110.647 34.2078C110.238 35.216 109.649 36.0132 108.879 36.5994C108.134 37.1622 107.244 37.4435 106.21 37.4435Z" fill="black"/>
<path d="M193.615 20.7404C193.615 22.0902 192.493 23.1844 191.109 23.1844C189.725 23.1844 188.602 22.0902 188.602 20.7404C188.602 19.3907 189.725 18.2965 191.109 18.2965C192.493 18.2965 193.615 19.3907 193.615 20.7404Z" fill="black"/>
</g>
<defs>
<clipPath id="clip0_46_70">
<rect width="194" height="33" fill="white" transform="translate(0 18)"/>
</clipPath>
</defs>
</svg>
