<svg width="175" height="68" viewBox="0 0 175 68" fill="none" xmlns="http://www.w3.org/2000/svg">
<g clip-path="url(#clip0_46_47)">
<path d="M163.077 14C163.219 14.0135 163.358 14.059 163.479 14.1338C163.601 14.2086 163.704 14.3109 163.781 14.4316C164.456 15.0886 168.206 18.9038 168.208 18.9063C168.521 19.2424 168.498 19.6786 168.474 20.1201C168.459 20.3931 168.444 20.6684 168.508 20.9229C168.679 20.9535 168.852 20.9765 169.024 20.9922C169.19 21.0071 169.357 21.0154 169.522 21.0166C169.716 21.0208 169.905 21.0855 170.061 21.2012C170.216 21.3171 170.334 21.4791 170.394 21.6641L174.568 25.8672C174.714 25.9833 174.822 26.1401 174.878 26.3174C174.963 27.3515 174.18 27.408 173.38 27.4658C173.034 27.4908 172.685 27.5164 172.402 27.6211C170.999 28.0009 169.746 28.8032 168.815 29.9189C167.883 31.0349 167.318 32.411 167.195 33.8594C167.105 34.0267 166.969 34.1644 166.802 34.2559C166.636 34.3474 166.447 34.3885 166.257 34.375C166.037 34.3555 165.831 34.2597 165.675 34.1035L164.305 32.7236C164.315 32.818 164.315 32.9121 164.315 32.9873V33.8965C164.315 33.954 164.317 34.0101 164.31 34.0654C164.301 34.1271 164.28 34.1888 164.231 34.2529V34.3379C164.231 34.3809 164.236 34.4213 164.241 34.4619C164.251 34.5451 164.262 34.6313 164.231 34.751C164.202 34.8625 164.198 34.9923 164.194 35.1084C164.193 35.1775 164.191 35.2425 164.184 35.2949C164.174 35.3675 164.174 35.4451 164.168 35.5225C164.162 35.595 164.15 35.6674 164.118 35.7354C164.074 35.8305 164.059 35.9213 164.055 36.0137C164.052 36.0579 164.052 36.1028 164.052 36.1484L163.996 36.4395L161.867 46.5889L161.698 47.3486L161.632 48.4561L160.694 53.249L160.544 54H84.625L84.2588 53.6338L84.1934 53.9531H76.0693L71.5479 49.4033L71.9795 47.3486H69.4277L67.8428 45.7451C65.8753 47.1778 63.493 47.9286 61.0596 47.8838C58.4439 47.9866 55.8937 47.0483 53.9678 45.2754L51.501 42.79L50.9658 45.2852C50.9002 45.6416 50.8164 45.9794 50.7227 46.3076L50.6377 46.6172L50.4971 47.0674C50.4855 47.1064 50.4697 47.1441 50.4502 47.1797C50.3105 47.5933 50.1446 47.9983 49.9531 48.3906C49.958 48.4057 49.9581 48.4224 49.9531 48.4375C49.9286 48.4894 49.8998 48.539 49.8682 48.5869C49.7266 48.8672 49.5703 49.1398 49.3994 49.4033C49.3677 49.4512 49.3399 49.5017 49.3154 49.5537L49.2119 49.666C48.9826 49.9949 48.7324 50.3086 48.4619 50.6045C48.3877 50.6787 48.3127 50.748 48.2373 50.8164C48.1604 50.8863 48.0826 50.9553 48.002 51.0264L47.7959 51.2236C47.6658 51.3317 47.5324 51.4356 47.3965 51.5361C47.2845 51.6189 47.1705 51.6989 47.0547 51.7764C45.1214 52.9218 42.8911 53.4678 40.6475 53.3438C37.552 53.3438 35.0754 52.4428 33.5088 50.8672L29.0996 46.4297C27.3387 47.4262 25.3445 47.9379 23.3213 47.9121C20.7135 47.9928 18.1784 47.0421 16.2666 45.2666L13.7988 42.7803L13.002 46.6172L12.8428 47.377H4.54004L0 42.7988L0.234375 41.6924L5.22559 17.7246L5.375 16.9736H13.7051L13.9209 17.1797V16.9736H70.0469L70.2529 17.1797V16.9736H78.377L82.917 21.5518L82.6924 22.6494L82.4482 23.8496H84.7842L85.1504 24.2158C86.178 23.6136 87.3451 23.2898 88.5361 23.2773C89.4119 23.2601 90.2822 23.4265 91.0898 23.7656C91.8977 24.1049 92.6256 24.6104 93.2266 25.248L93.1055 25.1064L95.3096 27.3301C96.6511 24.8068 99.6622 23.2774 103.752 23.2773C106.923 23.2773 109.259 24.0845 110.675 25.5479L112.27 27.1523L112.805 24.5723L112.964 23.8213H121.097L123.424 26.1572L123.752 24.582L123.912 23.8311H139.916L140.347 24.2627C141.431 23.6231 142.672 23.2979 143.931 23.3242C144.688 23.2947 145.442 23.4337 146.14 23.7305C146.837 24.0273 147.46 24.4748 147.964 25.041C147.938 25.0116 147.913 24.9821 147.888 24.9531C147.843 24.8995 147.798 24.8473 147.75 24.7988L148.565 25.6133C149.275 24.8781 150.129 24.2958 151.072 23.9023C152.016 23.5089 153.03 23.3118 154.052 23.3242C154.595 23.2908 155.137 23.337 155.663 23.46L154.775 22.5645C154.654 22.4351 154.572 22.2744 154.539 22.1006C154.506 21.9266 154.523 21.7459 154.587 21.5811C154.652 21.4163 154.762 21.2738 154.905 21.1689C155.048 21.0641 155.217 21.0009 155.394 20.9883H156.107C156.299 20.97 156.49 20.9422 156.679 20.9043C157.676 20.6947 158.614 20.266 159.425 19.6494C160.237 19.033 160.901 18.2444 161.37 17.3398C161.411 17.2699 161.448 17.1978 161.482 17.124V17.0772C161.805 16.3824 162.001 15.6355 162.064 14.8721C162.081 14.635 162.187 14.4128 162.361 14.251C162.535 14.0892 162.764 13.9994 163.002 14H163.077ZM81.2754 48.5313H155.253L156.191 43.7373H82.2139L81.2754 48.5313ZM88.5459 24.2158C87.5013 24.2509 86.4782 24.5224 85.5537 25.0098C84.6293 25.4973 83.8271 26.1883 83.208 27.0303L83.6777 24.751H77.749L72.6826 48.4463H78.9961L80.8721 39.7979H80.9756C81.482 40.6545 82.2173 41.3532 83.0986 41.8154C83.9801 42.2777 84.9732 42.4855 85.9658 42.415H85.9287C91.6229 42.415 94.353 36.8798 94.4375 31.6172C94.503 27.4334 92.2982 24.2158 88.5459 24.2158ZM37.5801 24.2529C32.4487 24.2529 29.3905 29.5821 29.3154 34.2725C29.2593 38.2966 31.9983 41.0449 35.4502 41.0449C36.2279 41.0275 36.9942 40.8527 37.7021 40.5303C38.41 40.2078 39.0449 39.7444 39.5684 39.1689H39.7002L39.3438 40.9043C38.9779 42.5834 38.1615 43.6532 36.3887 43.6533C35.0754 43.6533 34.212 43.1178 34.0244 42.1797H28.0586C28.4338 46.1665 32.1951 47.8085 36.1162 47.8086C38.1752 47.9258 40.224 47.4365 42.0078 46.4014C43.7712 45.1913 44.9343 43.4839 45.5439 40.501L48.8652 24.751H42.9365L42.5049 26.8984H42.4014C41.9342 26.0433 41.2322 25.3397 40.3779 24.8711C39.5235 24.4023 38.5524 24.1875 37.5801 24.2529ZM103.743 24.2158C99.184 24.2158 95.6287 26.2889 95.5723 30.21C95.5723 33.2962 97.6547 34.4315 100.797 35.2383C102.814 35.773 104.418 35.9421 104.4 37.1523C104.4 38.1557 103.536 38.5595 102.401 38.5596C100.525 38.5596 99.8971 37.6209 99.8877 36.3076H93.9873C93.8841 41.2042 98.2549 42.4149 102.139 42.415C107.101 42.415 110.319 40.2664 110.385 35.9795C110.385 32.5554 107.467 31.5138 104.597 30.8477C102.392 30.3412 101.427 29.9755 101.436 29.1406C101.446 28.3058 102.431 27.9678 103.396 27.9678C104.606 27.9679 105.432 28.3999 105.517 29.5068H111.248C111.182 25.4168 107.495 24.2158 103.743 24.2158ZM111.491 35.3223C110.553 39.9189 112.692 42.3955 116.276 42.3955C117.401 42.3845 118.504 42.077 119.472 41.5039C120.44 40.9307 121.241 40.1121 121.792 39.1309V39.1504H121.896L121.352 41.8613H127.279L130.854 24.7695H124.625L122.636 34.3193C122.233 36.2982 121.013 37.3396 119.476 37.3398C117.937 37.3398 117.598 35.895 117.908 34.3848L119.925 24.7695H113.696L111.491 35.3223ZM20.5439 24.2441C14.4746 24.2442 10.5163 28.8692 10.4131 34.6289C10.3383 39.9944 14.5591 42.3398 18.7803 42.3398C24.9154 42.3398 28.931 37.9211 28.9873 32.0205C29.0529 26.6266 24.8966 24.2441 20.5439 24.2441ZM58.2461 24.2441C52.2048 24.2441 48.2456 28.8691 48.1143 34.6289C48.03 39.9945 52.2514 42.3398 56.4727 42.3398C62.6078 42.3398 66.6322 37.9211 66.6885 32.0205C66.754 26.6267 62.5987 24.2442 58.2461 24.2441ZM1.14453 41.8428H7.58887L12.5703 17.874H6.13477L1.14453 41.8428ZM66.0605 41.8428H72.2979L75.8721 24.751H69.5967L66.0605 41.8428ZM154.006 24.1787C152.86 24.1741 151.732 24.4561 150.725 25C149.717 25.5441 148.861 26.3328 148.236 27.293H148.133C147.878 26.3693 147.314 25.5607 146.536 25.001C145.758 24.4414 144.812 24.1641 143.855 24.2158C141.305 24.2158 139.747 25.482 138.274 27.3955H138.171L138.715 24.751H132.748L129.174 41.8428H135.413L137.289 32.6211C137.72 30.6136 138.743 29.2061 140.291 29.2061C141.839 29.2061 142.046 30.4447 141.727 31.9551L139.662 41.8428H145.9L147.777 32.6211C148.208 30.4823 149.231 29.2061 150.778 29.2061C152.326 29.2062 152.533 30.3791 152.214 31.9551L150.15 41.8428H156.388L158.621 31.6826C159.559 27.3958 158.124 24.1787 154.006 24.1787ZM20.3848 28.5029C22.1951 28.503 22.7109 30.1443 22.7109 31.8232C22.7109 34.0953 21.7691 37.9089 19.2109 38.1445L18.9961 38.1553C17.2233 38.1551 16.7354 36.6451 16.7354 34.9004C16.7354 32.7239 17.6645 28.5029 20.3848 28.5029ZM58.1055 28.5029C59.9156 28.5031 60.4413 30.1444 60.4414 31.8232C60.4414 34.0951 59.499 37.9083 56.9414 38.1445L56.7266 38.1553C54.9442 38.1553 54.4561 36.6452 54.4561 34.9004C54.4561 32.7239 55.3945 28.5029 58.1055 28.5029ZM85.7227 29.0566C87.5705 29.0569 88.0205 30.7638 88.0205 32.3115C87.9924 34.5911 86.9323 38.0059 84.3525 38.0059C82.3734 38.0057 81.792 36.1666 81.792 34.5156C81.8297 32.1423 83.312 29.0566 85.7227 29.0566ZM39.0898 28.7002C40.8346 28.7002 41.4257 30.2476 41.4258 31.7578C41.3895 33.9481 40.1998 36.4818 38.0527 36.6377L37.7959 36.6455C36.0511 36.6455 35.46 35.1723 35.46 33.6338C35.4976 31.3545 36.7073 28.7004 39.0898 28.7002ZM163.039 14.4883C162.921 14.4879 162.807 14.5314 162.72 14.6113C162.633 14.6912 162.579 14.8013 162.569 14.9189C162.43 16.5889 161.715 18.1589 160.543 19.3574C159.372 20.5559 157.819 21.3088 156.153 21.4863C155.928 21.5008 155.702 21.5009 155.478 21.4863C155.354 21.4864 155.234 21.5351 155.146 21.623C155.058 21.711 155.009 21.8307 155.009 21.9551C155.009 22.0795 155.059 22.1992 155.146 22.2871C155.234 22.375 155.354 22.4238 155.478 22.4238C156.317 22.407 157.15 22.568 157.923 22.8955C158.695 23.223 159.39 23.7096 159.961 24.3242C160.533 24.9388 160.968 25.6675 161.238 26.4619C161.508 27.2563 161.606 28.0992 161.528 28.9346C161.523 28.9962 161.531 29.0584 161.55 29.1172C161.569 29.176 161.599 29.2303 161.639 29.2773C161.679 29.3244 161.728 29.3636 161.784 29.3916C161.839 29.4196 161.899 29.4367 161.96 29.4414C162.079 29.4418 162.193 29.3973 162.28 29.3174C162.367 29.2375 162.42 29.1274 162.43 29.0098C162.593 27.2349 163.407 25.583 164.714 24.3711C166.021 23.1592 167.73 22.4718 169.512 22.4424C169.636 22.4424 169.756 22.3935 169.844 22.3057C169.932 22.2177 169.98 22.098 169.98 21.9736C169.98 21.8494 169.932 21.7305 169.844 21.6426C169.756 21.5546 169.636 21.5049 169.512 21.5049C168.674 21.5204 167.841 21.3584 167.069 21.0303C166.299 20.7022 165.606 20.2149 165.035 19.6006C164.465 18.9861 164.031 18.2585 163.761 17.4648C163.492 16.6711 163.393 15.8288 163.471 14.9941C163.476 14.9326 163.469 14.8703 163.45 14.8115C163.431 14.7527 163.4 14.6984 163.359 14.6514C163.319 14.6044 163.271 14.5651 163.216 14.5371C163.161 14.5091 163.101 14.493 163.039 14.4883ZM13.7803 22.668H67.8984L68.8369 17.874H14.7188L13.7803 22.668ZM70.1123 22.668H76.3418L77.2793 17.874H71.0508L70.1123 22.668Z" fill="black"/>
</g>
<defs>
<clipPath id="clip0_46_47">
<rect width="175" height="40" fill="white" transform="translate(0 14)"/>
</clipPath>
</defs>
</svg>
