<svg width="502" height="520" viewBox="0 0 502 520" fill="none" xmlns="http://www.w3.org/2000/svg">
<g opacity="0.01">
<path d="M67.4206 106.072C66.3465 104.882 64.4966 104.768 63.3221 105.858C63.3002 105.879 63.2782 105.899 63.2563 105.919C62.0755 107.017 62.0489 108.884 63.1649 110.048C64.2583 111.187 66.081 111.239 67.2383 110.165C68.4014 109.084 68.4842 107.25 67.4206 106.072ZM85.5784 91.5053C84.6402 90.1945 82.8027 89.8755 81.5045 90.831C81.4876 90.8435 81.4706 90.8559 81.4537 90.8684C80.1535 91.8258 79.9145 93.6785 80.8945 94.9617C81.8554 96.22 83.6643 96.4773 84.9396 95.539C86.2156 94.6001 86.5004 92.7934 85.5784 91.5053ZM105.251 79.0549C104.467 77.6523 102.685 77.1294 101.291 77.9279C101.267 77.942 101.242 77.9562 101.217 77.9703C99.8167 78.7734 99.3812 80.5911 100.212 81.9752C101.025 83.3286 102.787 83.792 104.156 83.0056C105.535 82.2133 106.026 80.4435 105.251 79.0549ZM126.21 68.9208C125.586 67.4421 123.875 66.7264 122.402 67.3625C122.38 67.3717 122.359 67.381 122.338 67.3903C120.858 68.0295 120.209 69.777 120.872 71.2463C121.524 72.6907 123.229 73.3506 124.684 72.7228C126.145 72.0924 126.829 70.3868 126.21 68.9208ZM148.182 61.2158C147.727 59.6673 146.086 58.7758 144.542 59.2459C142.985 59.7199 142.116 61.3948 142.621 62.942C143.114 64.4478 144.721 65.2894 146.237 64.829C147.765 64.3648 148.632 62.7485 148.182 61.2158ZM170.872 56.0073C170.601 54.4299 169.103 53.3429 167.53 53.6369C167.498 53.6428 167.467 53.6487 167.436 53.6545C165.851 53.9516 164.83 55.5177 165.151 57.098C165.465 58.6448 166.974 59.6642 168.526 59.3743C170.088 59.0823 171.141 57.5736 170.872 56.0073ZM194.001 53.4015C193.912 51.7929 192.532 50.5385 190.925 50.6536C190.9 50.6554 190.875 50.6572 190.851 50.6589C189.245 50.7744 188.058 52.2108 188.198 53.8142C188.336 55.39 189.728 56.5752 191.306 56.4621C192.882 56.349 194.088 54.9795 194.001 53.4015ZM217.288 53.3474C217.368 51.7454 216.139 50.3586 214.537 50.293C214.511 50.292 214.485 50.2909 214.46 50.2899C212.85 50.2246 211.51 51.5168 211.469 53.1267C211.428 54.7113 212.681 56.0465 214.264 56.1107C215.854 56.1751 217.208 54.9363 217.288 53.3474ZM240.426 55.9259C240.69 54.3404 239.622 52.8187 238.034 52.574C238.007 52.5699 237.98 52.5657 237.953 52.5616C236.361 52.3168 234.884 53.4519 234.669 55.0481C234.457 56.6168 235.553 58.0769 237.117 58.3196C238.683 58.5626 240.166 57.4895 240.426 55.9259ZM263.121 61.0888C263.568 59.5387 262.678 57.898 261.121 57.4746C261.099 57.4687 261.078 57.4629 261.056 57.4571C259.501 57.0346 257.905 57.9957 257.507 59.5573C257.116 61.0932 258.037 62.6722 259.567 63.0889C261.092 63.5046 262.683 62.6083 263.121 61.0888ZM285.122 68.7224C285.731 67.2404 285.031 65.5429 283.542 64.9513C283.51 64.9388 283.478 64.9262 283.447 64.9137C281.954 64.3217 280.265 65.102 279.699 66.6048C279.142 68.0852 279.887 69.7569 281.355 70.3447C282.823 70.9323 284.497 70.2416 285.098 68.7792L285.122 68.7224ZM306.082 78.8661C306.854 77.4614 306.356 75.6763 304.943 74.9187C304.918 74.9055 304.894 74.8922 304.869 74.8789C303.451 74.1191 301.681 74.698 300.943 76.1272C300.215 77.5349 300.759 79.2829 302.157 80.0307C303.557 80.7801 305.317 80.2581 306.082 78.8661ZM325.782 91.278C326.706 89.971 326.411 88.1481 325.094 87.2389C325.073 87.2241 325.051 87.2092 325.03 87.1944C323.701 86.278 321.871 86.6545 320.973 87.9955C320.094 89.3086 320.43 91.0986 321.732 91.9945C323.045 92.8988 324.861 92.5805 325.782 91.278ZM343.958 105.83C345.023 104.624 344.898 102.76 343.684 101.704C342.464 100.643 340.592 100.784 339.553 102.023C338.534 103.237 338.687 105.055 339.882 106.096C341.081 107.14 342.907 107.021 343.958 105.83ZM360.436 122.284C361.627 121.209 361.738 119.36 360.652 118.18C360.635 118.161 360.617 118.142 360.6 118.123C359.509 116.937 357.647 116.9 356.478 118.01C355.33 119.101 355.27 120.927 356.342 122.093C357.42 123.265 359.254 123.351 360.436 122.284ZM374.937 140.493C376.25 139.553 376.555 137.704 375.602 136.4C374.645 135.09 372.783 134.823 371.488 135.8C370.219 136.758 369.945 138.563 370.882 139.847C371.824 141.137 373.637 141.422 374.937 140.493ZM387.245 160.249C388.678 159.46 389.189 157.639 388.388 156.212C387.599 154.805 385.81 154.335 384.422 155.157C383.043 155.974 382.582 157.763 383.365 159.162C384.134 160.537 385.865 161.01 387.245 160.249ZM397.371 181.21C398.855 180.594 399.562 178.893 398.93 177.416C398.917 177.384 398.904 177.353 398.891 177.322C398.261 175.85 396.524 175.204 395.065 175.863C393.619 176.515 392.965 178.231 393.581 179.692C394.192 181.143 395.854 181.84 397.308 181.236L397.371 181.21ZM404.982 203.217C406.524 202.775 407.44 201.162 406.978 199.625C406.97 199.599 406.962 199.574 406.955 199.549C406.489 198.004 404.824 197.158 403.287 197.648C401.782 198.129 400.932 199.74 401.387 201.253C401.845 202.774 403.455 203.655 404.982 203.217ZM410.098 225.933C411.679 225.659 412.76 224.156 412.475 222.577C412.47 222.555 412.466 222.532 412.462 222.51C412.174 220.922 410.618 219.893 409.034 220.207C407.481 220.515 406.453 222.025 406.735 223.583C407.02 225.152 408.527 226.204 410.098 225.933ZM412.657 249.071C414.26 248.98 415.482 247.611 415.366 246.01C415.362 245.964 415.359 245.918 415.356 245.871C415.241 244.303 413.859 243.121 412.292 243.258C410.7 243.398 409.525 244.837 409.609 246.433C409.69 247.972 410.989 249.166 412.528 249.079L412.657 249.071ZM412.583 272.355C414.184 272.446 415.585 271.227 415.657 269.625C415.658 269.594 415.659 269.562 415.661 269.531C415.732 267.92 414.432 266.577 412.82 266.536C411.241 266.496 409.906 267.74 409.836 269.318C409.765 270.904 410.998 272.266 412.583 272.355ZM409.93 295.487C411.509 295.758 413.037 294.711 413.284 293.129C413.289 293.095 413.294 293.061 413.3 293.027C413.547 291.435 412.409 289.954 410.814 289.729C409.25 289.508 407.782 290.591 407.537 292.151C407.291 293.721 408.364 295.218 409.93 295.487ZM404.684 318.169C406.227 318.612 407.858 317.73 408.285 316.183C408.292 316.158 408.298 316.134 408.305 316.109C408.732 314.558 407.779 312.959 406.222 312.553C404.687 312.153 403.103 313.068 402.681 314.596C402.258 316.129 403.156 317.73 404.684 318.169ZM397.018 340.157C398.464 340.764 400.128 340.114 400.705 338.657C400.729 338.598 400.752 338.539 400.775 338.481C401.365 336.983 400.602 335.293 399.099 334.717L399.009 334.683C397.557 334.127 395.939 334.858 395.372 336.306C394.79 337.79 395.464 339.503 396.934 340.121L397.018 340.157ZM386.748 361.061C388.145 361.84 389.909 361.346 390.667 359.936C390.683 359.906 390.699 359.876 390.715 359.846C391.476 358.429 390.9 356.654 389.472 355.915C388.07 355.189 386.329 355.732 385.577 357.12C384.824 358.512 385.31 360.259 386.692 361.03L386.748 361.061ZM374.263 380.718C375.561 381.647 377.365 381.362 378.274 380.05C378.296 380.018 378.319 379.985 378.341 379.953C379.259 378.627 378.896 376.81 377.556 375.913L377.507 375.88C376.199 375.004 374.433 375.353 373.538 376.647C372.632 377.954 372.922 379.758 374.215 380.684L374.263 380.718ZM359.615 398.818C360.819 399.895 362.688 399.787 363.753 398.572C364.822 397.352 364.678 395.478 363.442 394.429C362.23 393.398 360.41 393.526 359.361 394.722C358.307 395.922 358.424 397.753 359.615 398.818ZM343.096 415.224C344.166 416.425 346.021 416.547 347.208 415.461C347.226 415.445 347.244 415.429 347.262 415.412C348.454 414.32 348.494 412.451 347.38 411.279C346.292 410.134 344.474 410.068 343.307 411.133C342.132 412.205 342.038 414.038 343.096 415.224ZM324.842 429.67C325.767 430.982 327.59 431.309 328.888 430.366C328.905 430.354 328.921 430.342 328.938 430.33C330.25 429.376 330.509 427.518 329.533 426.223C328.583 424.963 326.79 424.693 325.514 425.62C324.227 426.557 323.923 428.369 324.842 429.67ZM305.063 441.952C305.838 443.359 307.615 443.89 309.015 443.102C309.034 443.091 309.054 443.08 309.074 443.069C310.478 442.277 310.94 440.473 310.128 439.081C309.329 437.711 307.563 437.233 306.182 438.012C304.795 438.794 304.295 440.558 305.063 441.952ZM284.021 451.916C284.628 453.406 286.335 454.145 287.815 453.518C287.84 453.507 287.865 453.496 287.89 453.486C289.375 452.857 290.033 451.111 289.379 449.637C288.737 448.191 287.04 447.518 285.582 448.135C284.121 448.753 283.423 450.447 284.021 451.916ZM261.997 459.462C262.438 461.006 264.052 461.922 265.592 461.466C265.614 461.46 265.636 461.453 265.658 461.446C267.203 460.989 268.058 459.334 267.578 457.796C267.105 456.283 265.49 455.423 263.969 455.873C262.444 456.324 261.561 457.933 261.997 459.462ZM239.263 464.487C239.525 466.069 241.022 467.164 242.601 466.885C242.629 466.88 242.658 466.875 242.686 466.87C244.275 466.588 245.305 465.031 244.993 463.448C244.688 461.898 243.182 460.87 241.627 461.145C240.064 461.422 239.004 462.92 239.263 464.487ZM216.104 466.943C216.187 468.545 217.551 469.805 219.153 469.703C219.183 469.701 219.213 469.699 219.243 469.697C220.852 469.593 222.047 468.159 221.915 466.552C221.785 464.978 220.406 463.785 218.83 463.885C217.245 463.986 216.023 465.357 216.104 466.943ZM192.822 466.792C192.721 468.398 193.939 469.806 195.547 469.882C195.573 469.883 195.599 469.884 195.625 469.885C197.236 469.96 198.59 468.676 198.641 467.064C198.69 465.481 197.451 464.14 195.868 464.064C194.285 463.987 192.921 465.21 192.822 466.792ZM169.702 464.044C169.431 465.632 170.519 467.15 172.109 467.406C173.703 467.663 175.214 466.56 175.449 464.963C175.68 463.393 174.597 461.925 173.031 461.671C171.461 461.416 169.97 462.476 169.702 464.044ZM147.037 458.727C146.585 460.261 147.449 461.901 148.988 462.333C149.024 462.343 149.061 462.353 149.097 462.363C150.645 462.797 152.243 461.836 152.649 460.28C153.047 458.755 152.137 457.172 150.619 456.747C149.093 456.32 147.484 457.208 147.037 458.727ZM125.119 450.871C124.497 452.352 125.186 454.072 126.673 454.678C126.695 454.687 126.717 454.696 126.739 454.705C128.231 455.314 129.933 454.555 130.519 453.054C131.095 451.577 130.373 449.898 128.904 449.302C127.43 448.703 125.734 449.404 125.119 450.871ZM104.222 440.598C103.441 441.999 103.926 443.788 105.334 444.555C105.357 444.568 105.381 444.58 105.404 444.593C106.82 445.363 108.596 444.795 109.345 443.368C110.082 441.967 109.555 440.219 108.166 439.46C106.768 438.696 104.999 439.207 104.222 440.598ZM84.6286 428.028C83.6925 429.331 83.973 431.164 85.2856 432.087C85.3078 432.102 85.3301 432.118 85.3523 432.134C86.6696 433.059 88.4952 432.697 89.4013 431.366C90.2939 430.055 89.9658 428.254 88.6682 427.342C87.3666 426.428 85.5567 426.736 84.6286 428.028ZM66.5694 413.33C65.4798 414.532 65.5801 416.398 66.7968 417.471C68.0186 418.55 69.891 418.411 70.946 417.169C71.9726 415.96 71.8465 414.148 70.658 413.099C69.4636 412.043 67.6394 412.149 66.5694 413.33ZM50.2119 396.759C49.0085 397.835 48.9111 399.685 49.9944 400.881C51.086 402.087 52.9542 402.163 54.1406 401.051C55.2993 399.965 55.3723 398.15 54.3049 396.974C53.2309 395.79 51.4033 395.695 50.2119 396.759ZM35.8498 378.44C34.5285 379.373 34.2207 381.204 35.1643 382.517C36.113 383.838 37.9594 384.126 39.2647 383.156C40.5413 382.208 40.8208 380.411 39.8925 379.119C38.9597 377.822 37.1554 377.519 35.8498 378.44ZM23.6471 358.61C22.2329 359.377 21.6903 361.154 22.4749 362.559C22.487 362.58 22.4991 362.602 22.5112 362.624C23.2992 364.033 25.107 364.499 26.5016 363.686C27.8675 362.889 28.3468 361.129 27.5753 359.749C26.8009 358.363 25.0426 357.854 23.6471 358.61ZM13.7442 337.543C12.2585 338.149 11.5229 339.849 12.1428 341.329C12.1517 341.35 12.1606 341.372 12.1695 341.393C12.793 342.88 14.532 343.553 16.01 342.908C17.4619 342.274 18.141 340.579 17.5302 339.117C16.9165 337.648 15.2186 336.943 13.7442 337.543ZM6.29759 315.483C4.75212 315.914 3.81886 317.521 4.26659 319.062C4.27579 319.094 4.28501 319.125 4.29422 319.157C4.74381 320.701 6.40052 321.551 7.93548 321.072C9.44496 320.6 10.3063 318.987 9.8661 317.468C9.42518 315.947 7.82331 315.057 6.29759 315.483ZM1.36037 292.735C-0.226371 292.988 -1.32872 294.481 -1.053 296.064C-1.04853 296.09 -1.04406 296.115 -1.03959 296.141C-0.76204 297.731 0.788537 298.771 2.37389 298.468C3.92777 298.171 4.9648 296.67 4.69216 295.112C4.41863 293.549 2.9278 292.485 1.36037 292.735ZM-0.998102 269.577C-2.60518 269.661 -3.84342 271.054 -3.74656 272.661C-3.64928 274.274 -2.24142 275.511 -0.629669 275.388C0.95201 275.269 2.14497 273.892 2.0503 272.309C1.95523 270.719 0.592858 269.494 -0.998102 269.577ZM-0.771497 246.296C-2.37391 246.196 -3.77411 247.41 -3.85778 249.014C-3.85906 249.038 -3.86033 249.062 -3.86158 249.087C-3.94544 250.703 -2.65769 252.064 -1.03958 252.115C0.537658 252.164 1.87688 250.936 1.95846 249.36C2.04083 247.769 0.818407 246.395 -0.771497 246.296ZM2.06742 223.189C0.489041 222.908 -1.04489 223.952 -1.30792 225.533C-1.31291 225.563 -1.31789 225.593 -1.32286 225.623C-1.58641 227.212 -0.460447 228.701 1.13342 228.935C2.6959 229.165 4.17015 228.088 4.42873 226.53C4.68853 224.965 3.62954 223.467 2.06742 223.189ZM7.46083 200.53C5.92893 200.083 4.30811 200.95 3.87128 202.485C3.86314 202.514 3.855 202.542 3.84687 202.571C3.40591 204.123 4.3505 205.73 5.91004 206.143C7.43682 206.547 9.01737 205.647 9.44819 204.127C9.88406 202.59 8.99479 200.977 7.46083 200.53ZM15.4182 178.653C13.9428 178.022 12.2072 178.692 11.5964 180.176C11.5833 180.207 11.5703 180.239 11.5573 180.271C10.9465 181.756 11.7085 183.455 13.2051 184.039C14.6786 184.614 16.3596 183.889 16.963 182.427C17.5658 180.966 16.8713 179.273 15.4182 178.653ZM25.7514 157.793C24.3616 157.006 22.5816 157.48 21.8092 158.878C21.794 158.905 21.7789 158.933 21.7637 158.96C20.9804 160.38 21.5601 162.17 22.995 162.924C24.3845 163.655 26.1233 163.146 26.875 161.768C27.6411 160.363 27.1439 158.581 25.7514 157.793ZM38.4201 138.268C37.1238 137.322 35.2816 137.585 34.3525 138.893C34.3312 138.923 34.3098 138.953 34.2885 138.983C33.3598 140.293 33.7301 142.117 35.0571 143.02C36.3637 143.91 38.1652 143.585 39.0795 142.296C39.9939 141.006 39.6972 139.2 38.4201 138.268ZM51.0232 122.617C49.8192 121.553 47.9639 121.647 46.916 122.865C46.9006 122.883 46.8853 122.9 46.8699 122.918C45.8186 124.141 45.9942 125.998 47.2292 127.035C48.4438 128.054 50.2687 127.906 51.3037 126.705C52.341 125.501 52.2141 123.669 51.0232 122.617Z" fill="#F0F0F7"/>
<path fill-rule="evenodd" clip-rule="evenodd" d="M53.5953 132.372C124.154 48.283 249.525 37.3179 333.619 107.881C405.477 168.177 423.929 268.487 383.758 348.87C352.621 322.553 322.492 297.223 306.17 283.87C263.086 248.629 271.966 203.415 271.966 203.415C205.247 202.828 120.879 181.076 120.879 181.076L210.952 256.656C215.009 254.033 219.872 252.954 224.657 253.613C229.442 254.272 233.832 256.626 237.03 260.247C240.227 263.868 242.018 268.516 242.079 273.346C242.14 278.177 240.466 282.868 237.361 286.568C234.256 290.269 229.927 292.732 225.159 293.511C220.392 294.29 215.503 293.332 211.382 290.812C207.261 288.293 204.18 284.378 202.7 279.78C201.22 275.182 201.439 270.205 203.317 265.755L113.244 190.175C113.244 190.175 149.315 269.485 161.479 335.088C161.479 335.088 204.464 318.492 246.652 354.801C262.635 368.557 292.812 393.83 324.137 419.922C251.952 473.442 149.961 472.688 78.103 412.392C-5.99042 341.83 -16.9648 216.462 53.5953 132.372Z" fill="#F0F0F7"/>
<path fill-rule="evenodd" clip-rule="evenodd" d="M324.169 419.909C292.841 393.815 262.652 368.544 246.672 354.778C204.484 318.469 161.499 335.065 161.499 335.065C149.335 269.462 113.264 190.152 113.264 190.152C113.264 190.152 150.559 292.422 154.854 344.551C154.854 344.551 192.32 334.245 214.468 347.385C233.713 358.802 274.34 392.761 309.738 429.654C314.662 426.635 319.473 423.387 324.169 419.909Z" fill="#F0F0F7"/>
<path fill-rule="evenodd" clip-rule="evenodd" d="M383.775 348.873C352.636 322.553 322.499 297.217 306.174 283.862C263.091 248.622 271.97 203.407 271.97 203.407C205.255 202.823 120.884 181.068 120.884 181.068C120.884 181.068 228.075 200.039 280.16 195.217C280.16 195.217 276.514 233.902 293.303 253.431C307.889 270.402 348.387 304.515 390.863 332.969C388.746 338.344 386.384 343.645 383.775 348.873Z" fill="#F0F0F7"/>
<path fill-rule="evenodd" clip-rule="evenodd" d="M231.833 281.933C229.455 284.765 226.122 286.628 222.464 287.17C218.806 287.712 215.076 286.895 211.979 284.875C208.882 282.854 206.632 279.77 205.654 276.203C204.676 272.637 205.038 268.836 206.672 265.519L113.248 190.173L203.321 265.753C201.438 270.204 201.215 275.183 202.694 279.784C204.173 284.386 207.254 288.303 211.378 290.824C215.501 293.345 220.393 294.303 225.162 293.521C229.932 292.74 234.262 290.273 237.366 286.568L231.833 281.933Z" fill="#F0F0F7"/>
<path fill-rule="evenodd" clip-rule="evenodd" d="M231.84 281.924C234.216 279.09 235.472 275.485 235.37 271.788C235.269 268.092 233.818 264.561 231.29 261.861C228.762 259.162 225.334 257.482 221.652 257.138C217.97 256.794 214.29 257.811 211.306 259.996L120.882 181.075L210.955 256.655C215.011 254.028 219.876 252.944 224.665 253.601C229.453 254.259 233.846 256.613 237.045 260.237C240.244 263.86 242.036 268.511 242.094 273.344C242.153 278.177 240.474 282.87 237.364 286.569L231.84 281.924Z" fill="#F0F0F7"/>
</g>
</svg>
